<?xml version="1.0" encoding="UTF-8"?>
<svg xmlns="http://www.w3.org/2000/svg" xmlns:xlink="http://www.w3.org/1999/xlink" width="152pt" height="29pt" viewBox="0 0 152 29" version="1.1">
<g id="surface1">
<path style=" stroke:none;fill-rule:nonzero;fill:rgb(22.745098%,50.980392%,26.666667%);fill-opacity:1;" d="M 14.085938 22.742188 L 13.832031 24.167969 L 11.097656 24.167969 L 10.082031 28.847656 L 8.105469 28.847656 L 9.425781 22.742188 Z M 14.085938 22.742188 "/>
<path style=" stroke:none;fill-rule:nonzero;fill:rgb(22.745098%,50.980392%,26.666667%);fill-opacity:1;" d="M 18.644531 26.761719 L 18.441406 24.574219 L 17.378906 26.761719 Z M 19.863281 22.742188 L 20.722656 28.796875 L 18.746094 28.796875 L 18.695312 27.984375 L 16.71875 27.984375 L 16.316406 28.796875 L 14.390625 28.796875 L 17.835938 22.742188 Z M 19.863281 22.742188 "/>
<path style=" stroke:none;fill-rule:nonzero;fill:rgb(22.745098%,50.980392%,26.666667%);fill-opacity:1;" d="M 25.941406 25.539062 L 26.753906 25.539062 C 27.207031 25.539062 27.714844 25.285156 27.714844 24.726562 C 27.714844 24.269531 27.207031 24.21875 26.753906 24.21875 L 26.195312 24.21875 Z M 25.230469 28.847656 L 23.257812 28.847656 L 24.574219 22.792969 L 27.511719 22.792969 C 29.03125 22.792969 29.691406 23.402344 29.691406 24.371094 C 29.691406 25.949219 28.523438 27.015625 26.652344 27.015625 L 25.636719 27.015625 Z M 25.230469 28.847656 "/>
<path style=" stroke:none;fill-rule:nonzero;fill:rgb(22.745098%,50.980392%,26.666667%);fill-opacity:1;" d="M 34.707031 26.761719 L 34.503906 24.574219 L 33.441406 26.761719 Z M 35.921875 22.742188 L 36.785156 28.796875 L 34.808594 28.796875 L 34.757812 27.984375 L 32.78125 27.984375 L 32.425781 28.847656 L 30.5 28.847656 L 33.945312 22.742188 Z M 35.921875 22.742188 "/>
<path style=" stroke:none;fill-rule:nonzero;fill:rgb(22.745098%,50.980392%,26.666667%);fill-opacity:1;" d="M 42.15625 24.878906 L 44.03125 24.878906 L 44.484375 22.742188 L 46.460938 22.742188 L 45.144531 28.847656 L 43.167969 28.847656 L 43.726562 26.304688 L 41.851562 26.304688 L 41.292969 28.847656 L 39.316406 28.847656 L 40.632812 22.742188 L 42.609375 22.742188 Z M 42.15625 24.878906 "/>
<path style=" stroke:none;fill-rule:nonzero;fill:rgb(22.745098%,50.980392%,26.666667%);fill-opacity:1;" d="M 51.578125 28.847656 L 49.601562 28.847656 L 50.617188 24.167969 L 48.84375 24.167969 L 49.148438 22.742188 L 54.667969 22.742188 L 54.367188 24.167969 L 52.59375 24.167969 Z M 51.578125 28.847656 "/>
<path style=" stroke:none;fill-rule:nonzero;fill:rgb(22.745098%,50.980392%,26.666667%);fill-opacity:1;" d="M 63.179688 22.742188 L 61.914062 28.847656 L 59.988281 28.847656 L 60.394531 26.914062 L 60.851562 25.335938 L 57.910156 28.847656 L 56.039062 28.847656 L 57.355469 22.742188 L 59.230469 22.742188 L 58.824219 24.675781 L 58.417969 26.253906 L 61.308594 22.742188 Z M 63.179688 22.742188 "/>
<path style=" stroke:none;fill-rule:nonzero;fill:rgb(22.745098%,50.980392%,26.666667%);fill-opacity:1;" d="M 69.210938 24.167969 L 68.398438 24.167969 C 67.945312 24.167969 67.4375 24.421875 67.4375 24.929688 C 67.4375 25.183594 67.640625 25.335938 68.246094 25.335938 L 68.90625 25.335938 Z M 68.097656 26.710938 L 66.726562 28.847656 L 64.601562 28.847656 L 66.375 26.457031 C 65.917969 26.253906 65.5625 25.640625 65.5625 25.03125 C 65.5625 24.269531 66.121094 22.792969 68.601562 22.792969 L 71.492188 22.792969 L 70.171875 28.847656 L 68.199219 28.847656 L 68.652344 26.710938 Z M 68.097656 26.710938 "/>
<path style=" stroke:none;fill-rule:nonzero;fill:rgb(22.745098%,50.980392%,26.666667%);fill-opacity:1;" d="M 80.710938 24.726562 L 82.839844 22.742188 L 85.171875 22.742188 L 82.484375 25.03125 L 84.105469 28.847656 L 81.726562 28.847656 L 80.8125 26.40625 L 80.257812 26.914062 L 79.800781 28.847656 L 77.824219 28.847656 L 79.140625 22.742188 L 81.117188 22.742188 Z M 80.710938 24.726562 "/>
<path style=" stroke:none;fill-rule:nonzero;fill:rgb(22.745098%,50.980392%,26.666667%);fill-opacity:1;" d="M 90.441406 26.761719 L 90.238281 24.574219 L 89.171875 26.761719 Z M 91.65625 22.742188 L 92.515625 28.796875 L 90.542969 28.796875 L 90.492188 27.984375 L 88.515625 27.984375 L 88.109375 28.796875 L 86.183594 28.796875 L 89.628906 22.742188 Z M 91.65625 22.742188 "/>
<path style=" stroke:none;fill-rule:nonzero;fill:rgb(22.745098%,50.980392%,26.666667%);fill-opacity:1;" d="M 97.734375 22.742188 L 97.382812 24.320312 C 97.382812 24.371094 97.332031 24.472656 97.332031 24.523438 C 97.332031 24.878906 97.535156 25.03125 97.9375 25.03125 C 98.34375 25.03125 98.699219 24.980469 98.851562 24.929688 L 99.308594 22.792969 L 101.28125 22.792969 L 99.964844 28.847656 L 97.988281 28.847656 L 98.496094 26.40625 C 98.140625 26.507812 97.886719 26.558594 96.824219 26.558594 C 96.0625 26.558594 95.203125 26.152344 95.203125 25.132812 C 95.203125 24.980469 95.203125 24.828125 95.253906 24.675781 L 95.660156 22.792969 L 97.734375 22.792969 Z M 97.734375 22.742188 "/>
<path style=" stroke:none;fill-rule:nonzero;fill:rgb(22.745098%,50.980392%,26.666667%);fill-opacity:1;" d="M 109.289062 22.742188 L 108.984375 24.167969 L 106.046875 24.167969 L 105.84375 25.03125 L 108.375 25.03125 L 108.070312 26.457031 L 105.539062 26.457031 L 105.335938 27.421875 L 108.425781 27.421875 L 108.121094 28.847656 L 103.054688 28.847656 L 104.375 22.742188 Z M 109.289062 22.742188 "/>
<path style=" stroke:none;fill-rule:nonzero;fill:rgb(22.745098%,50.980392%,26.666667%);fill-opacity:1;" d="M 115.621094 25.082031 C 115.621094 25.03125 115.621094 24.980469 115.621094 24.929688 C 115.621094 24.421875 115.316406 24.117188 114.761719 24.117188 C 113.492188 24.117188 113.1875 26.101562 113.1875 26.609375 C 113.1875 27.167969 113.390625 27.523438 114.101562 27.523438 C 114.761719 27.523438 115.113281 27.066406 115.316406 26.507812 L 117.242188 26.507812 C 116.734375 28.085938 115.417969 29 113.796875 29 C 112.125 29 111.164062 28.136719 111.164062 26.660156 C 111.164062 24.269531 113.039062 22.589844 114.960938 22.589844 C 116.632812 22.589844 117.496094 23.351562 117.496094 24.675781 C 117.496094 24.777344 117.496094 24.929688 117.445312 25.03125 L 115.621094 25.03125 Z M 115.621094 25.082031 "/>
<path style=" stroke:none;fill-rule:nonzero;fill:rgb(22.745098%,50.980392%,26.666667%);fill-opacity:1;" d="M 122.867188 28.847656 L 120.839844 28.847656 L 121.851562 24.167969 L 120.078125 24.167969 L 120.382812 22.742188 L 125.90625 22.742188 L 125.601562 24.167969 L 123.828125 24.167969 Z M 122.867188 28.847656 "/>
<path style=" stroke:none;fill-rule:nonzero;fill:rgb(22.745098%,50.980392%,26.666667%);fill-opacity:1;" d="M 130.0625 25.183594 L 130.871094 25.183594 C 131.277344 25.183594 131.683594 24.980469 131.683594 24.523438 C 131.683594 24.21875 131.378906 24.167969 130.972656 24.167969 L 130.265625 24.167969 Z M 129.605469 27.421875 L 130.464844 27.421875 C 130.972656 27.421875 131.480469 27.320312 131.480469 26.710938 C 131.480469 26.355469 131.125 26.304688 130.464844 26.304688 L 129.859375 26.304688 Z M 128.59375 22.742188 L 131.480469 22.742188 C 132.695312 22.742188 133.660156 22.996094 133.660156 23.914062 C 133.660156 24.675781 133.101562 25.285156 132.542969 25.589844 C 133.050781 25.742188 133.304688 26.152344 133.304688 26.660156 C 133.304688 28.289062 131.886719 28.847656 130.265625 28.847656 L 127.324219 28.847656 Z M 128.59375 22.742188 "/>
<path style=" stroke:none;fill-rule:nonzero;fill:rgb(22.745098%,50.980392%,26.666667%);fill-opacity:1;" d="M 139.382812 26.761719 L 139.179688 24.574219 L 138.117188 26.761719 Z M 140.652344 22.742188 L 141.511719 28.796875 L 139.535156 28.796875 L 139.484375 27.984375 L 137.507812 27.984375 L 137.105469 28.796875 L 135.179688 28.796875 L 138.625 22.742188 Z M 140.652344 22.742188 "/>
<path style=" stroke:none;fill-rule:nonzero;fill:rgb(22.745098%,50.980392%,26.666667%);fill-opacity:1;" d="M 149.464844 3.917969 C 148.503906 3.917969 147.691406 3.15625 147.691406 2.136719 C 147.691406 1.171875 148.453125 0.355469 149.464844 0.355469 C 150.429688 0.355469 151.238281 1.121094 151.238281 2.136719 C 151.238281 3.15625 150.480469 3.917969 149.464844 3.917969 M 149.464844 0 C 148.300781 0 147.339844 0.964844 147.339844 2.1875 C 147.339844 3.410156 148.300781 4.324219 149.464844 4.324219 C 150.683594 4.324219 151.644531 3.359375 151.644531 2.1875 C 151.644531 0.964844 150.683594 0 149.464844 0 "/>
<path style=" stroke:none;fill-rule:nonzero;fill:rgb(22.745098%,50.980392%,26.666667%);fill-opacity:1;" d="M 150.125 1.730469 L 150.074219 1.882812 L 150.023438 1.933594 L 149.921875 1.984375 L 149.113281 1.984375 L 149.214844 1.476562 L 150.074219 1.476562 L 150.175781 1.578125 L 150.175781 1.730469 Z M 150.632812 1.476562 L 150.632812 1.375 L 150.582031 1.273438 L 150.378906 1.171875 L 148.808594 1.171875 L 148.453125 3.207031 L 148.960938 3.207031 L 149.113281 2.390625 L 149.464844 2.390625 L 149.566406 2.441406 L 149.617188 2.492188 L 149.71875 2.695312 L 149.972656 3.15625 L 150.53125 3.15625 L 150.328125 2.746094 L 150.226562 2.542969 L 149.972656 2.289062 L 149.871094 2.238281 L 150.175781 2.238281 L 150.378906 2.136719 L 150.53125 1.984375 L 150.582031 1.882812 L 150.582031 1.527344 Z M 150.632812 1.476562 "/>
<path style=" stroke:none;fill-rule:nonzero;fill:rgb(22.745098%,50.980392%,26.666667%);fill-opacity:1;" d="M 98.140625 16.738281 L 102.195312 16.738281 L 104.425781 4.019531 L 93.734375 4.019531 L 91.503906 12.414062 C 91.351562 12.972656 90.792969 13.429688 90.238281 13.429688 L 89.222656 13.429688 L 88.667969 16.738281 L 90.945312 16.738281 C 93.074219 16.738281 94.898438 15.3125 95.457031 13.277344 L 97.230469 6.714844 L 99.964844 6.714844 Z M 98.140625 16.738281 "/>
<path style=" stroke:none;fill-rule:nonzero;fill:rgb(22.745098%,50.980392%,26.666667%);fill-opacity:1;" d="M 137.558594 14.09375 L 143.945312 14.09375 L 143.488281 16.738281 L 136.191406 16.738281 C 133.910156 16.738281 131.835938 15.515625 130.667969 13.585938 C 129.554688 11.601562 129.554688 9.207031 130.667969 7.222656 C 131.835938 5.242188 133.910156 4.070312 136.191406 4.070312 L 145.71875 4.070312 L 144.601562 10.429688 L 140.550781 10.429688 L 141.207031 6.765625 L 137.558594 6.765625 C 136.242188 6.765625 135.027344 7.480469 134.367188 8.597656 C 133.710938 9.769531 133.710938 11.140625 134.367188 12.3125 C 135.027344 13.378906 136.242188 14.09375 137.558594 14.09375 "/>
<path style=" stroke:none;fill-rule:nonzero;fill:rgb(22.745098%,50.980392%,26.666667%);fill-opacity:1;" d="M 126.617188 4.070312 L 131.023438 4.070312 L 126.566406 10.429688 L 129.554688 16.738281 L 125.148438 16.738281 L 122.15625 10.429688 Z M 126.617188 4.070312 "/>
<path style=" stroke:none;fill-rule:nonzero;fill:rgb(22.745098%,50.980392%,26.666667%);fill-opacity:1;" d="M 119.21875 4.070312 L 123.273438 4.070312 L 121.042969 16.738281 L 116.988281 16.738281 Z M 119.21875 4.070312 "/>
<path style=" stroke:none;fill-rule:nonzero;fill:rgb(22.745098%,50.980392%,26.666667%);fill-opacity:1;" d="M 113.847656 11.753906 L 109.035156 11.753906 L 108.679688 14.09375 L 115.417969 14.09375 L 114.960938 16.738281 L 104.121094 16.738281 L 106.347656 4.070312 L 117.191406 4.070312 L 116.734375 6.714844 L 109.945312 6.714844 L 109.542969 9.054688 L 114.304688 9.054688 Z M 113.847656 11.753906 "/>
<path style=" stroke:none;fill-rule:nonzero;fill:rgb(22.745098%,50.980392%,26.666667%);fill-opacity:1;" d="M 82.585938 16.738281 L 83.703125 10.378906 L 77.773438 16.738281 L 73.113281 16.738281 L 75.289062 4.070312 L 79.394531 4.070312 L 78.28125 10.378906 L 84.207031 4.070312 L 88.871094 4.070312 L 86.640625 16.738281 Z M 82.585938 16.738281 "/>
<path style=" stroke:none;fill-rule:nonzero;fill:rgb(22.745098%,50.980392%,26.666667%);fill-opacity:1;" d="M 63.28125 10.429688 L 68.246094 4.070312 L 73.316406 4.070312 L 68.347656 10.429688 L 71.339844 16.738281 L 66.273438 16.738281 Z M 63.28125 10.429688 "/>
<path style=" stroke:none;fill-rule:nonzero;fill:rgb(22.745098%,50.980392%,26.666667%);fill-opacity:1;" d="M 64.398438 4.070312 L 62.167969 16.738281 L 58.113281 16.738281 L 60.34375 4.070312 Z M 64.398438 4.070312 "/>
<path style=" stroke:none;fill-rule:nonzero;fill:rgb(22.745098%,50.980392%,26.666667%);fill-opacity:1;" d="M 49.148438 16.738281 L 54.265625 16.738281 L 59.230469 10.378906 L 56.238281 4.070312 L 51.171875 4.070312 L 54.113281 10.378906 Z M 49.148438 16.738281 "/>
<path style=" stroke:none;fill-rule:nonzero;fill:rgb(22.745098%,50.980392%,26.666667%);fill-opacity:1;" d="M 36.074219 6.714844 L 42.457031 6.714844 C 43.777344 6.714844 44.992188 7.429688 45.652344 8.546875 C 46.308594 9.71875 46.308594 11.089844 45.652344 12.261719 C 44.992188 13.378906 43.777344 14.09375 42.457031 14.09375 L 38.863281 14.09375 L 39.519531 10.378906 L 35.464844 10.378906 L 34.351562 16.738281 L 43.828125 16.738281 C 46.105469 16.738281 48.183594 15.515625 49.347656 13.585938 C 50.464844 11.601562 50.464844 9.207031 49.347656 7.222656 C 48.183594 5.242188 46.105469 4.070312 43.828125 4.070312 L 36.53125 4.070312 Z M 36.074219 6.714844 "/>
<path style=" stroke:none;fill-rule:nonzero;fill:rgb(33.333333%,60%,85.882353%);fill-opacity:1;" d="M 10.792969 15.109375 L 23.558594 15.109375 C 26.246094 15.109375 28.726562 13.6875 30.097656 11.34375 C 31.414062 9.003906 31.414062 6.105469 30.097656 3.816406 C 28.726562 1.476562 26.246094 0 23.558594 0 L 13.476562 0 L 12.769531 4.070312 L 22.902344 4.070312 C 24.167969 4.070312 25.332031 4.730469 25.941406 5.851562 C 26.550781 6.917969 26.550781 8.292969 25.941406 9.363281 C 25.332031 10.429688 24.167969 11.140625 22.902344 11.140625 L 19.660156 11.140625 L 20.621094 5.800781 L 7.851562 5.800781 C 5.167969 5.800781 2.683594 7.222656 1.316406 9.566406 C 0 11.804688 0 14.703125 1.367188 16.992188 C 2.734375 19.332031 5.167969 20.757812 7.902344 20.757812 L 18.039062 20.757812 L 18.746094 16.738281 L 8.613281 16.738281 C 7.347656 16.738281 6.179688 16.078125 5.574219 15.007812 C 4.964844 13.941406 4.964844 12.566406 5.574219 11.449219 C 6.179688 10.378906 7.347656 9.667969 8.613281 9.667969 L 11.855469 9.667969 Z M 10.792969 15.109375 "/>
<path style=" stroke:none;fill-rule:nonzero;fill:rgb(22.745098%,50.980392%,26.666667%);fill-opacity:1;" d="M 143.03125 19.433594 L 24.371094 19.433594 L 24.117188 20.808594 L 142.777344 20.808594 Z M 143.03125 19.433594 "/>
</g>
</svg>
