<?xml version="1.0" encoding="UTF-8"?>
<svg xmlns="http://www.w3.org/2000/svg" xmlns:xlink="http://www.w3.org/1999/xlink" width="151pt" height="37pt" viewBox="0 0 151 37" version="1.1">
<g id="surface1">
<path style=" stroke:none;fill-rule:nonzero;fill:rgb(10.196078%,17.647059%,26.666667%);fill-opacity:1;" d="M 14.972656 26.125 L 14.972656 9.792969 L 23 9.792969 L 23 4.539062 L 0.207031 4.539062 L 0.207031 7.625 L 2.363281 9.792969 L 8.230469 9.792969 L 8.230469 26.125 Z M 14.972656 26.125 "/>
<path style=" stroke:none;fill-rule:nonzero;fill:rgb(10.196078%,17.647059%,26.666667%);fill-opacity:1;" d="M 32.304688 20.90625 L 32.304688 17.789062 L 41.816406 17.789062 L 41.816406 12.875 L 32.304688 12.875 L 32.304688 9.792969 L 43.0625 9.792969 L 45.1875 7.625 L 45.1875 4.539062 L 25.5625 4.539062 L 25.5625 23.039062 L 28.597656 26.125 L 45.523438 26.125 L 45.523438 23.039062 L 43.367188 20.90625 Z M 32.304688 20.90625 "/>
<path style=" stroke:none;fill-rule:nonzero;fill:rgb(10.196078%,17.647059%,26.666667%);fill-opacity:1;" d="M 48.289062 4.539062 L 48.289062 26.15625 L 55.03125 26.15625 L 55.03125 20.429688 L 65.957031 20.429688 L 69.9375 16.738281 L 69.9375 8.265625 L 65.957031 4.539062 Z M 63.664062 14.265625 L 62.753906 15.179688 L 55.066406 15.179688 L 55.066406 9.792969 L 62.753906 9.792969 L 63.664062 10.707031 Z M 63.664062 14.265625 "/>
<path style=" stroke:none;fill-rule:nonzero;fill:rgb(10.196078%,17.647059%,26.666667%);fill-opacity:1;" d="M 93.101562 4.539062 L 86.359375 14.398438 L 79.578125 4.539062 L 72.835938 4.539062 L 72.835938 23.988281 L 74.996094 26.125 L 79.578125 26.125 L 79.578125 15.347656 L 84.03125 21.820312 L 88.648438 21.820312 L 93.101562 15.347656 L 93.101562 26.125 L 99.878906 26.125 L 99.878906 6.707031 L 97.722656 4.539062 Z M 93.101562 4.539062 "/>
<path style=" stroke:none;fill-rule:nonzero;fill:rgb(10.196078%,17.647059%,26.666667%);fill-opacity:1;" d="M 125.472656 4.539062 L 119.164062 4.539062 L 110.09375 16.265625 L 110.09375 4.539062 L 105.511719 4.539062 L 103.351562 6.707031 L 103.351562 26.125 L 109.65625 26.125 L 118.695312 14.398438 L 118.695312 26.125 L 123.3125 26.125 L 125.472656 23.988281 Z M 125.472656 4.539062 "/>
<path style=" stroke:none;fill-rule:nonzero;fill:rgb(10.196078%,17.647059%,26.666667%);fill-opacity:1;" d="M 128.035156 9.792969 L 136.027344 9.792969 L 136.027344 26.125 L 142.769531 26.125 L 142.769531 9.792969 L 148.636719 9.792969 L 150.792969 7.625 L 150.792969 4.539062 L 128.035156 4.539062 Z M 128.035156 9.792969 "/>
<path style=" stroke:none;fill-rule:nonzero;fill:rgb(10.196078%,17.647059%,26.666667%);fill-opacity:1;" d="M 146.378906 2.507812 L 147.085938 2.507812 L 147.085938 0.609375 L 147.828125 0.609375 L 147.828125 0 L 145.636719 0 L 145.636719 0.609375 L 146.378906 0.609375 Z M 146.378906 2.507812 "/>
<path style=" stroke:none;fill-rule:nonzero;fill:rgb(10.196078%,17.647059%,26.666667%);fill-opacity:1;" d="M 150.050781 0 L 149.445312 0.984375 L 148.871094 0 L 148.128906 0 L 148.128906 2.507812 L 148.804688 2.507812 L 148.804688 1.085938 L 149.445312 2.066406 L 150.085938 1.085938 L 150.085938 2.507812 L 150.792969 2.507812 L 150.792969 0 Z M 150.050781 0 "/>
<path style=" stroke:none;fill-rule:nonzero;fill:rgb(10.196078%,17.647059%,26.666667%);fill-opacity:1;" d="M 13.863281 30.460938 L 12.445312 30.460938 L 11.0625 32.460938 L 9.476562 32.460938 L 9.476562 30.460938 L 8.230469 30.460938 L 8.230469 35.949219 L 9.476562 35.949219 L 9.476562 33.613281 L 11.097656 33.613281 L 12.511719 35.949219 L 13.996094 35.949219 L 12.109375 33 Z M 13.863281 30.460938 "/>
<path style=" stroke:none;fill-rule:nonzero;fill:rgb(10.196078%,17.647059%,26.666667%);fill-opacity:1;" d="M 17.539062 30.324219 C 15.886719 30.324219 14.46875 31.476562 14.46875 33.207031 C 14.46875 34.933594 15.886719 36.085938 17.539062 36.085938 C 19.1875 36.085938 20.605469 34.933594 20.605469 33.207031 C 20.605469 31.476562 19.222656 30.324219 17.539062 30.324219 Z M 17.539062 35 C 16.527344 35 15.714844 34.324219 15.714844 33.171875 C 15.714844 32.054688 16.527344 31.339844 17.539062 31.339844 C 18.546875 31.339844 19.359375 32.019531 19.359375 33.171875 C 19.390625 34.324219 18.582031 35 17.539062 35 Z M 17.539062 35 "/>
<path style=" stroke:none;fill-rule:nonzero;fill:rgb(10.196078%,17.647059%,26.666667%);fill-opacity:1;" d="M 25.394531 34.425781 L 25.328125 34.425781 L 23.4375 30.460938 L 21.785156 30.460938 L 21.785156 35.949219 L 22.964844 35.949219 L 22.964844 32.085938 L 23.035156 32.085938 L 24.820312 35.949219 L 25.832031 35.949219 L 27.6875 32.085938 L 27.753906 32.085938 L 27.753906 35.949219 L 28.96875 35.949219 L 28.96875 30.460938 L 27.382812 30.460938 Z M 25.394531 34.425781 "/>
<path style=" stroke:none;fill-rule:nonzero;fill:rgb(10.196078%,17.647059%,26.666667%);fill-opacity:1;" d="M 35.710938 31.035156 L 34.597656 31.035156 L 34.597656 30.425781 L 33.386719 30.425781 L 33.386719 31.035156 L 32.273438 31.035156 C 30.992188 31.035156 30.011719 31.917969 30.011719 33.207031 C 30.011719 34.492188 30.992188 35.304688 32.273438 35.304688 L 33.386719 35.304688 L 33.386719 35.914062 L 34.597656 35.914062 L 34.597656 35.304688 L 35.710938 35.304688 C 36.992188 35.304688 37.972656 34.492188 37.972656 33.207031 C 37.972656 31.917969 36.992188 31.035156 35.710938 31.035156 Z M 33.386719 34.1875 L 32.339844 34.1875 C 31.699219 34.1875 31.261719 33.847656 31.261719 33.207031 C 31.261719 32.527344 31.664062 32.1875 32.339844 32.1875 L 33.386719 32.1875 Z M 35.644531 34.1875 L 34.597656 34.1875 L 34.597656 32.1875 L 35.644531 32.1875 C 36.320312 32.1875 36.722656 32.527344 36.722656 33.207031 C 36.722656 33.847656 36.285156 34.1875 35.644531 34.1875 Z M 35.644531 34.1875 "/>
<path style=" stroke:none;fill-rule:nonzero;fill:rgb(10.196078%,17.647059%,26.666667%);fill-opacity:1;" d="M 41.984375 30.324219 C 40.332031 30.324219 38.914062 31.476562 38.914062 33.207031 C 38.914062 34.933594 40.332031 36.085938 41.984375 36.085938 C 43.636719 36.085938 45.050781 34.933594 45.050781 33.207031 C 45.050781 31.476562 43.636719 30.324219 41.984375 30.324219 Z M 41.984375 35 C 40.972656 35 40.164062 34.324219 40.164062 33.171875 C 40.164062 32.054688 40.972656 31.339844 41.984375 31.339844 C 42.996094 31.339844 43.804688 32.019531 43.804688 33.171875 C 43.804688 34.324219 43.027344 35 41.984375 35 Z M 41.984375 35 "/>
<path style=" stroke:none;fill-rule:nonzero;fill:rgb(10.196078%,17.647059%,26.666667%);fill-opacity:1;" d="M 49.433594 30.460938 L 46.199219 30.460938 L 46.199219 35.949219 L 47.445312 35.949219 L 47.445312 34.730469 L 49.433594 34.730469 C 50.714844 34.730469 51.695312 33.917969 51.695312 32.628906 C 51.695312 31.308594 50.714844 30.460938 49.433594 30.460938 Z M 49.402344 33.578125 L 47.480469 33.578125 L 47.480469 31.578125 L 49.402344 31.578125 C 50.042969 31.578125 50.480469 31.953125 50.480469 32.59375 C 50.445312 33.238281 50.007812 33.578125 49.402344 33.578125 Z M 49.402344 33.578125 "/>
<path style=" stroke:none;fill-rule:nonzero;fill:rgb(10.196078%,17.647059%,26.666667%);fill-opacity:1;" d="M 52.46875 31.542969 L 54.695312 31.542969 L 54.695312 35.949219 L 55.941406 35.949219 L 55.941406 31.542969 L 58.167969 31.542969 L 58.167969 30.460938 L 52.46875 30.460938 Z M 52.46875 31.542969 "/>
<path style=" stroke:none;fill-rule:nonzero;fill:rgb(10.196078%,17.647059%,26.666667%);fill-opacity:1;" d="M 63.53125 34.253906 L 63.53125 30.460938 L 62.316406 30.460938 L 62.316406 35.949219 L 63.53125 35.949219 L 66.765625 32.15625 L 66.765625 35.949219 L 67.980469 35.949219 L 67.980469 30.460938 L 66.800781 30.460938 Z M 63.53125 34.253906 "/>
<path style=" stroke:none;fill-rule:nonzero;fill:rgb(10.196078%,17.647059%,26.666667%);fill-opacity:1;" d="M 76.644531 32.527344 L 73.542969 32.527344 L 73.542969 30.460938 L 72.332031 30.460938 L 72.332031 35.949219 L 73.542969 35.949219 L 73.542969 33.644531 L 76.644531 33.644531 L 76.644531 35.949219 L 77.859375 35.949219 L 77.859375 30.460938 L 76.644531 30.460938 Z M 76.644531 32.527344 "/>
<path style=" stroke:none;fill-rule:nonzero;fill:rgb(10.196078%,17.647059%,26.666667%);fill-opacity:1;" d="M 81.300781 30.460938 L 78.90625 35.949219 L 80.21875 35.949219 L 80.589844 35.101562 L 83.964844 35.101562 L 84.335938 35.949219 L 85.648438 35.949219 L 83.324219 30.460938 Z M 81.0625 34.019531 L 82.074219 31.542969 L 82.511719 31.542969 L 83.492188 34.019531 Z M 81.0625 34.019531 "/>
<path style=" stroke:none;fill-rule:nonzero;fill:rgb(10.196078%,17.647059%,26.666667%);fill-opacity:1;" d="M 92.425781 30.460938 L 88.078125 30.460938 L 87.199219 34.832031 L 86.527344 34.832031 L 86.527344 37 L 87.605469 37 L 87.707031 35.949219 L 91.921875 35.949219 L 92.023438 37 L 93.101562 37 L 93.101562 34.832031 L 92.460938 34.832031 L 92.460938 30.460938 Z M 91.214844 34.832031 L 88.515625 34.832031 L 89.089844 31.542969 L 91.214844 31.542969 Z M 91.214844 34.832031 "/>
<path style=" stroke:none;fill-rule:nonzero;fill:rgb(10.196078%,17.647059%,26.666667%);fill-opacity:1;" d="M 95.394531 33.714844 L 98.765625 33.714844 L 98.765625 32.59375 L 95.394531 32.59375 L 95.394531 31.578125 L 99.136719 31.578125 L 99.136719 30.460938 L 94.179688 30.460938 L 94.179688 35.949219 L 99.273438 35.949219 L 99.273438 34.796875 L 95.394531 34.796875 Z M 95.394531 33.714844 "/>
<path style=" stroke:none;fill-rule:nonzero;fill:rgb(10.196078%,17.647059%,26.666667%);fill-opacity:1;" d="M 108.949219 30.460938 L 107.53125 30.460938 L 106.320312 32.527344 L 105.273438 32.527344 L 105.273438 30.460938 L 104.027344 30.460938 L 104.027344 32.527344 L 102.980469 32.527344 L 101.765625 30.460938 L 100.382812 30.460938 L 101.9375 33 L 100.183594 35.949219 L 101.632812 35.949219 L 102.945312 33.613281 L 104.027344 33.613281 L 104.027344 35.949219 L 105.273438 35.949219 L 105.273438 33.613281 L 106.386719 33.613281 L 107.703125 35.949219 L 109.117188 35.949219 L 107.398438 33 Z M 108.949219 30.460938 "/>
<path style=" stroke:none;fill-rule:nonzero;fill:rgb(10.196078%,17.647059%,26.666667%);fill-opacity:1;" d="M 114.445312 32.527344 L 111.34375 32.527344 L 111.34375 30.460938 L 110.128906 30.460938 L 110.128906 35.949219 L 111.34375 35.949219 L 111.34375 33.644531 L 114.445312 33.644531 L 114.445312 35.949219 L 115.660156 35.949219 L 115.660156 30.460938 L 114.445312 30.460938 Z M 114.445312 32.527344 "/>
<path style=" stroke:none;fill-rule:nonzero;fill:rgb(10.196078%,17.647059%,26.666667%);fill-opacity:1;" d="M 119.90625 30.324219 C 118.253906 30.324219 116.839844 31.476562 116.839844 33.207031 C 116.839844 34.933594 118.253906 36.085938 119.90625 36.085938 C 121.558594 36.085938 122.976562 34.933594 122.976562 33.207031 C 122.976562 31.476562 121.558594 30.324219 119.90625 30.324219 Z M 119.90625 35 C 118.894531 35 118.085938 34.324219 118.085938 33.171875 C 118.085938 32.054688 118.894531 31.339844 119.90625 31.339844 C 120.917969 31.339844 121.730469 32.019531 121.730469 33.171875 C 121.730469 34.324219 120.917969 35 119.90625 35 Z M 119.90625 35 "/>
<path style=" stroke:none;fill-rule:nonzero;fill:rgb(10.196078%,17.647059%,26.666667%);fill-opacity:1;" d="M 127.054688 31.410156 C 127.933594 31.410156 128.472656 31.75 128.878906 32.324219 L 129.820312 31.78125 C 129.246094 30.832031 128.335938 30.324219 127.054688 30.324219 C 125.335938 30.324219 123.988281 31.441406 123.988281 33.207031 C 123.988281 34.96875 125.304688 36.085938 127.054688 36.085938 C 128.335938 36.085938 129.246094 35.578125 129.820312 34.628906 L 128.878906 34.085938 C 128.472656 34.695312 127.933594 35 127.054688 35 C 125.976562 35 125.234375 34.289062 125.234375 33.238281 C 125.234375 32.121094 125.976562 31.410156 127.054688 31.410156 Z M 127.054688 31.410156 "/>
<path style=" stroke:none;fill-rule:nonzero;fill:rgb(10.196078%,17.647059%,26.666667%);fill-opacity:1;" d="M 130.664062 31.542969 L 132.890625 31.542969 L 132.890625 35.949219 L 134.136719 35.949219 L 134.136719 31.542969 L 136.363281 31.542969 L 136.363281 30.460938 L 130.664062 30.460938 Z M 130.664062 31.542969 "/>
<path style=" stroke:none;fill-rule:nonzero;fill:rgb(10.196078%,17.647059%,26.666667%);fill-opacity:1;" d="M 140.511719 31.679688 L 138.621094 31.679688 L 138.621094 30.425781 L 137.375 30.425781 L 137.375 35.914062 L 140.511719 35.914062 C 141.792969 35.914062 142.769531 35.035156 142.769531 33.746094 C 142.769531 32.492188 141.792969 31.679688 140.511719 31.679688 Z M 140.441406 34.796875 L 138.65625 34.796875 L 138.65625 32.796875 L 140.441406 32.796875 C 141.183594 32.796875 141.554688 33.101562 141.554688 33.78125 C 141.554688 34.457031 141.152344 34.796875 140.441406 34.796875 Z M 140.441406 34.796875 "/>
</g>
</svg>
