<?xml version="1.0" encoding="UTF-8" standalone="no"?>
<!-- Generator: Adobe Illustrator 18.0.0, SVG Export Plug-In . SVG Version: 6.00 Build 0)  -->

<svg
   xmlns:dc="http://purl.org/dc/elements/1.1/"
   xmlns:cc="http://creativecommons.org/ns#"
   xmlns:rdf="http://www.w3.org/1999/02/22-rdf-syntax-ns#"
   xmlns:svg="http://www.w3.org/2000/svg"
   xmlns="http://www.w3.org/2000/svg"
   xmlns:sodipodi="http://sodipodi.sourceforge.net/DTD/sodipodi-0.dtd"
   xmlns:inkscape="http://www.inkscape.org/namespaces/inkscape"
   version="1.1"
   id="Layer_1"
   x="0px"
   y="0px"
   viewBox="0 0 1250 614.84998"
   enable-background="new 0 0 1400 980"
   xml:space="preserve"
   sodipodi:docname="Free Manhole Vector1.svg"
   width="1250"
   height="614.84998"
   inkscape:version="0.92.4 5da689c313, 2019-01-14"><metadata
   id="metadata119"><rdf:RDF><cc:Work
       rdf:about=""><dc:format>image/svg+xml</dc:format><dc:type
         rdf:resource="http://purl.org/dc/dcmitype/StillImage" /></cc:Work></rdf:RDF></metadata><defs
   id="defs117" /><sodipodi:namedview
   pagecolor="#ffffff"
   bordercolor="#666666"
   borderopacity="1"
   objecttolerance="10"
   gridtolerance="10"
   guidetolerance="10"
   inkscape:pageopacity="0"
   inkscape:pageshadow="2"
   inkscape:window-width="640"
   inkscape:window-height="480"
   id="namedview115"
   showgrid="false"
   inkscape:snap-page="true"
   inkscape:zoom="0.16"
   inkscape:cx="740.38035"
   inkscape:cy="231.0293"
   inkscape:window-x="558"
   inkscape:window-y="317"
   inkscape:window-maximized="0"
   inkscape:current-layer="Layer_1" />
<g
   id="g112"
   transform="translate(-75,-182.65)">
	<g
   id="g22">
		<path
   d="m 191.5,326.9 h -80.3 c -0.6,0 -1.1,0.4 -1.3,0.9 -2.8,8 -4.5,16.4 -5.1,24.9 0,0.4 0.1,0.7 0.4,1 0.3,0.3 0.6,0.4 1,0.4 h 85.3 c 0.8,0 1.4,-0.6 1.4,-1.4 v -24.5 c 0,-0.7 -0.6,-1.3 -1.4,-1.3 z m -1.4,24.5 h -82.4 c 0.6,-7.4 2.1,-14.8 4.5,-21.8 h 77.9 z"
   id="path2"
   inkscape:connector-curvature="0"
   style="fill:#262262" />
		<path
   d="m 191.5,399.9 h -75 c -0.5,0 -0.9,0.3 -1.2,0.7 -0.2,0.4 -0.3,0.9 0,1.3 4.9,9.3 11.3,17.7 19,24.9 0.3,0.2 0.6,0.4 0.9,0.4 h 56.3 c 0.8,0 1.4,-0.6 1.4,-1.4 v -24.5 c 0,-0.8 -0.6,-1.4 -1.4,-1.4 z m -1.4,24.5 h -54.4 c -6.8,-6.4 -12.5,-13.7 -17,-21.8 h 71.4 z"
   id="path4"
   inkscape:connector-curvature="0"
   style="fill:#262262" />
		<path
   d="m 278.5,399.9 h -75 c -0.8,0 -1.4,0.6 -1.4,1.4 v 24.5 c 0,0.8 0.6,1.4 1.4,1.4 h 56.3 c 0.3,0 0.7,-0.1 0.9,-0.4 7.7,-7.2 14.1,-15.6 19,-24.9 0.2,-0.4 0.2,-0.9 0,-1.3 -0.3,-0.4 -0.7,-0.7 -1.2,-0.7 z m -19.3,24.5 h -54.4 v -21.8 h 71.4 c -4.5,8.1 -10.2,15.5 -17,21.8 z"
   id="path6"
   inkscape:connector-curvature="0"
   style="fill:#262262" />
		<path
   d="m 191.5,436.4 h -40.2 c -0.6,0 -1.2,0.4 -1.3,1 -0.2,0.6 0.1,1.2 0.6,1.5 12.5,7.3 26.3,11.5 40.8,12.5 0,0 0.1,0 0.1,0 0.3,0 0.7,-0.1 0.9,-0.4 0.3,-0.3 0.4,-0.6 0.4,-1 v -12.3 c 0.1,-0.7 -0.5,-1.3 -1.3,-1.3 z m -1.4,12.2 c -11.8,-0.9 -23,-4.1 -33.5,-9.5 h 33.5 z"
   id="path8"
   inkscape:connector-curvature="0"
   style="fill:#262262" />
		<path
   d="m 203.5,354.2 h 85.3 c 0.4,0 0.7,-0.2 1,-0.4 0.3,-0.3 0.4,-0.6 0.4,-1 -0.6,-8.5 -2.3,-16.9 -5.1,-24.9 -0.2,-0.5 -0.7,-0.9 -1.3,-0.9 h -80.3 c -0.8,0 -1.4,0.6 -1.4,1.4 v 24.5 c 0,0.7 0.6,1.3 1.4,1.3 z m 1.4,-24.5 h 77.9 c 2.4,7 3.9,14.3 4.5,21.8 h -82.4 z"
   id="path10"
   inkscape:connector-curvature="0"
   style="fill:#262262" />
		<path
   d="m 288.8,363.4 h -85.3 c -0.8,0 -1.4,0.6 -1.4,1.4 v 24.5 c 0,0.8 0.6,1.4 1.4,1.4 h 80.3 c 0.6,0 1.1,-0.4 1.3,-0.9 2.8,-8 4.5,-16.4 5.1,-24.9 0,-0.4 -0.1,-0.7 -0.4,-1 -0.3,-0.3 -0.7,-0.5 -1,-0.5 z m -6,24.5 h -77.9 v -21.8 h 82.4 c -0.6,7.5 -2.1,14.8 -4.5,21.8 z"
   id="path12"
   inkscape:connector-curvature="0"
   style="fill:#262262" />
		<path
   d="m 243.7,436.4 h -40.2 c -0.8,0 -1.4,0.6 -1.4,1.4 v 12.3 c 0,0.4 0.2,0.7 0.4,1 0.3,0.2 0.6,0.4 0.9,0.4 0,0 0.1,0 0.1,0 14.5,-0.9 28.2,-5.1 40.8,-12.5 0.5,-0.3 0.8,-0.9 0.6,-1.5 -0.1,-0.7 -0.6,-1.1 -1.2,-1.1 z m -38.8,12.2 v -9.5 h 33.5 c -10.5,5.4 -21.8,8.6 -33.5,9.5 z"
   id="path14"
   inkscape:connector-curvature="0"
   style="fill:#262262" />
		<path
   d="m 191.5,363.4 h -85.3 c -0.4,0 -0.7,0.2 -1,0.4 -0.3,0.3 -0.4,0.6 -0.4,1 0.6,8.5 2.3,16.9 5.1,24.9 0.2,0.5 0.7,0.9 1.3,0.9 h 80.3 c 0.8,0 1.4,-0.6 1.4,-1.4 v -24.5 c 0,-0.7 -0.6,-1.3 -1.4,-1.3 z m -1.4,24.5 h -77.9 c -2.4,-7 -3.9,-14.3 -4.5,-21.8 h 82.4 z"
   id="path16"
   inkscape:connector-curvature="0"
   style="fill:#262262" />
		<path
   d="M 284.4,294.1 C 271.1,276.3 252.2,262.7 231.2,255.8 L 200,184.3 c -0.4,-1 -1.4,-1.6 -2.5,-1.6 -1.1,0 -2.1,0.6 -2.5,1.6 l -31.2,71.5 c -21.1,6.9 -39.9,20.4 -53.2,38.3 -14,18.8 -21.5,41.2 -21.5,64.7 0,59.7 48.6,108.4 108.4,108.4 59.8,0 108.4,-48.6 108.4,-108.4 0,-23.5 -7.5,-45.9 -21.5,-64.7 z m -79.5,20.7 c 3.1,-0.6 6,-1.5 8.8,-2.8 6.7,-3 12.5,-8 16.6,-14.6 0.2,-0.3 0.4,-0.7 0.6,-1 0.1,-0.1 0.1,-0.2 0.2,-0.3 0.1,-0.2 0.3,-0.5 0.4,-0.7 0.1,-0.1 0.1,-0.3 0.2,-0.4 0.1,-0.2 0.2,-0.4 0.3,-0.7 0.1,-0.1 0.1,-0.3 0.2,-0.4 0.1,-0.2 0.2,-0.4 0.3,-0.6 0,0 0,0 0,-0.1 h 26.6 c 6.8,6.4 12.5,13.7 17,21.8 h -71.4 v -0.2 z m 31.5,-36.7 c 0,-0.1 0,-0.3 0,-0.4 0,0 0,-0.1 0,-0.1 0.6,0.3 1.3,0.6 1.9,0.9 h -1.9 c 0,-0.2 0,-0.3 0,-0.4 z m -38.9,-85.8 29.1,66.8 c 0,0 0,0 0,0 l 0.1,0.2 1.4,3.2 c 3.8,8.8 3.8,18.6 0,27.3 -0.7,1.6 -1.5,3.2 -2.5,4.7 -0.8,1.2 -1.6,2.3 -2.4,3.4 -6.1,7.5 -14.9,11.8 -24.6,12.1 -0.7,0 -1.4,0 -2.1,0 -2.8,-0.1 -5.5,-0.5 -8.1,-1.2 -0.6,-0.2 -1.3,-0.4 -1.9,-0.6 -0.4,-0.2 -0.9,-0.3 -1.3,-0.5 -0.5,-0.2 -1,-0.4 -1.5,-0.6 -0.3,-0.1 -0.6,-0.3 -0.9,-0.4 -2,-1 -3.8,-2.1 -5.6,-3.5 -0.5,-0.4 -1.1,-0.9 -1.6,-1.3 -0.6,-0.5 -1.2,-1.1 -1.7,-1.7 -0.4,-0.4 -0.7,-0.8 -1.1,-1.1 -0.3,-0.4 -0.7,-0.8 -1,-1.1 -0.9,-1.1 -1.7,-2.2 -2.4,-3.4 -3.6,-5.7 -5.4,-12.2 -5.3,-18.8 0,0 0,0 0,0 0.1,-4.1 0.9,-8.3 2.4,-12.2 0.1,-0.3 0.3,-0.7 0.4,-1 l 1.5,-3.4 v 0 z m -38.9,85.2 c 0,0.1 0,0.1 0,0.2 0,0.1 0,0.2 0,0.3 0,0.1 0,0.3 0,0.4 h -1.9 c 0.6,-0.3 1.2,-0.5 1.9,-0.9 z m 3.8,15.7 c 0.1,0.2 0.2,0.4 0.3,0.6 0.1,0.1 0.1,0.3 0.2,0.4 0.1,0.2 0.2,0.4 0.3,0.7 0.1,0.1 0.1,0.3 0.2,0.4 0.1,0.2 0.3,0.5 0.4,0.7 0.1,0.1 0.1,0.2 0.2,0.3 0.2,0.3 0.4,0.7 0.6,1 2.2,3.5 4.8,6.5 7.8,9 0.1,0.1 0.2,0.1 0.3,0.2 1.2,1 2.6,2 3.9,2.9 0.5,0.3 0.9,0.6 1.4,0.9 0,0 0.1,0.1 0.1,0.1 0,0 0.1,0.1 0.1,0.1 0.6,0.4 1.3,0.7 1.9,1 0.5,0.2 1,0.5 1.5,0.7 0.8,0.3 1.5,0.6 2.3,0.9 0.7,0.3 1.5,0.5 2.2,0.7 0.8,0.2 1.6,0.4 2.4,0.6 0.2,0.1 0.5,0.1 0.7,0.2 0.2,0 0.5,0.1 0.7,0.1 v 0.2 h -71.4 c 4.5,-8.1 10.2,-15.4 17,-21.8 l 26.9,0.1 c 0,0 0,0 0,0 z m 35.1,168.5 c -56.7,0 -102.9,-46.2 -102.9,-102.9 0,-43.2 26.4,-81.1 66.3,-96.2 0,0 0,0 0,0 0,0.1 -0.1,0.2 -0.1,0.2 -0.1,0.3 -0.2,0.6 -0.3,0.9 0,0.1 -0.1,0.2 -0.1,0.4 -0.1,0.3 -0.2,0.5 -0.2,0.8 0,0.1 -0.1,0.3 -0.1,0.4 -0.1,0.2 -0.1,0.5 -0.2,0.7 0,0.1 -0.1,0.3 -0.1,0.4 -0.1,0.2 -0.1,0.5 -0.2,0.7 0,0.2 -0.1,0.3 -0.1,0.5 -0.1,0.2 -0.1,0.5 -0.1,0.7 0,0.2 -0.1,0.3 -0.1,0.5 0,0.2 -0.1,0.5 -0.1,0.7 0,0.2 -0.1,0.3 -0.1,0.5 0,0.2 -0.1,0.5 -0.1,0.7 0,0.2 0,0.3 -0.1,0.5 0,0.2 -0.1,0.5 -0.1,0.7 0,0.2 0,0.3 -0.1,0.5 0,0.2 0,0.5 -0.1,0.7 0,0.2 0,0.3 0,0.5 0,0.2 0,0.5 0,0.7 0,0.1 0,0.3 0,0.4 -2.7,1.3 -5.4,2.6 -7.9,4.1 -0.5,0.3 -0.8,0.9 -0.6,1.5 0.2,0.6 0.7,1 1.3,1 h 7.5 c 0,0.1 0,0.3 0,0.4 0,0.1 0,0.2 0,0.3 0,0.3 0.1,0.6 0.1,0.8 0,0.1 0,0.3 0.1,0.4 0,0.2 0.1,0.5 0.1,0.7 0,0.1 0.1,0.3 0.1,0.4 0,0.2 0.1,0.5 0.2,0.7 0,0.2 0.1,0.3 0.1,0.5 0.1,0.2 0.1,0.4 0.2,0.7 0,0.2 0.1,0.3 0.1,0.5 0.1,0.2 0.1,0.4 0.2,0.7 0,0.2 0.1,0.3 0.1,0.5 0.1,0.2 0.1,0.4 0.2,0.6 0.1,0.2 0.1,0.3 0.2,0.5 0.1,0.2 0.1,0.4 0.2,0.6 0.1,0.2 0.1,0.3 0.2,0.5 0.1,0.2 0.1,0.3 0.2,0.5 h -26 c -0.3,0 -0.7,0.1 -0.9,0.4 -7.7,7.2 -14.1,15.6 -19,24.9 -0.2,0.4 -0.2,0.9 0,1.3 0.2,0.4 0.7,0.7 1.2,0.7 h 75 c 0.8,0 1.4,-0.6 1.4,-1.4 v -1.1 c 0.2,0 0.5,0.1 0.7,0.1 0.9,0.1 1.8,0.1 2.7,0.2 0.4,0 0.8,0 1.2,0 0.4,0 0.8,0 1.2,0 1.1,0 2.3,-0.1 3.4,-0.2 v 1.1 c 0,0.8 0.6,1.4 1.4,1.4 h 75 c 0.5,0 0.9,-0.3 1.2,-0.7 0.2,-0.4 0.3,-0.9 0,-1.3 -4.9,-9.3 -11.3,-17.7 -19,-24.9 -0.3,-0.2 -0.6,-0.4 -0.9,-0.4 h -26 c 0.1,-0.2 0.1,-0.3 0.2,-0.5 0.1,-0.2 0.1,-0.3 0.2,-0.5 0.1,-0.2 0.1,-0.4 0.2,-0.6 0.1,-0.2 0.1,-0.3 0.2,-0.5 0.1,-0.2 0.1,-0.4 0.2,-0.6 0.1,-0.2 0.1,-0.3 0.2,-0.5 0.1,-0.2 0.1,-0.4 0.2,-0.6 0,-0.2 0.1,-0.3 0.1,-0.5 0.1,-0.2 0.1,-0.4 0.2,-0.6 0,-0.2 0.1,-0.3 0.1,-0.5 0.1,-0.2 0.1,-0.4 0.1,-0.7 0,-0.2 0.1,-0.3 0.1,-0.5 0,-0.2 0.1,-0.5 0.1,-0.7 0,-0.1 0.1,-0.3 0.1,-0.4 0,-0.3 0.1,-0.5 0.1,-0.8 0,-0.1 0,-0.3 0.1,-0.4 0,-0.1 0,-0.2 0,-0.4 h 7.5 c 0.6,0 1.2,-0.4 1.3,-1 0.2,-0.6 -0.1,-1.2 -0.6,-1.5 -2.5,-1.5 -5.2,-2.9 -7.9,-4.1 0,-0.1 0,-0.3 0,-0.4 0,-0.2 0,-0.4 0,-0.7 0,-0.2 0,-0.3 0,-0.5 0,-0.2 0,-0.4 -0.1,-0.7 0,-0.2 0,-0.3 -0.1,-0.5 0,-0.2 -0.1,-0.4 -0.1,-0.7 0,-0.2 0,-0.3 -0.1,-0.5 0,-0.2 -0.1,-0.4 -0.1,-0.7 0,-0.2 -0.1,-0.3 -0.1,-0.5 0,-0.2 -0.1,-0.4 -0.1,-0.7 0,-0.2 -0.1,-0.3 -0.1,-0.5 0,-0.2 -0.1,-0.4 -0.1,-0.7 0,-0.2 -0.1,-0.3 -0.1,-0.5 -0.1,-0.2 -0.1,-0.4 -0.2,-0.7 0,-0.2 -0.1,-0.3 -0.1,-0.5 -0.1,-0.2 -0.1,-0.5 -0.2,-0.7 0,-0.1 -0.1,-0.3 -0.1,-0.4 -0.1,-0.2 -0.2,-0.5 -0.2,-0.7 0,-0.1 -0.1,-0.3 -0.1,-0.4 -0.1,-0.3 -0.2,-0.6 -0.3,-0.9 0,-0.1 -0.1,-0.2 -0.1,-0.3 0,0 0,0 0,0 39.9,15.1 66.3,53 66.3,96.2 -0.1,56.7 -46.3,102.9 -103,102.9 z"
   id="path18"
   inkscape:connector-curvature="0"
   style="fill:#262262" />
		<path
   d="m 197.1,303.7 c 0.8,0 1.4,-0.6 1.4,-1.4 0,-0.8 -0.6,-1.4 -1.4,-1.4 -13.4,0 -24.3,-10.9 -24.3,-24.3 0,-0.8 -0.6,-1.4 -1.4,-1.4 -0.8,0 -1.4,0.6 -1.4,1.4 0,15 12.1,27.1 27.1,27.1 z"
   id="path20"
   inkscape:connector-curvature="0"
   style="fill:#262262" />
	</g>
	<path
   d="m 665.3,187.3 c -3,-3 -7,-4.6 -11.2,-4.6 -4.2,0 -8.2,1.6 -11.2,4.6 l -137.4,137.4 -7.3,-7.3 c -1.1,-1.1 -2.8,-1.1 -3.9,0 l -9.2,9.2 c -8.6,-3.5 -18,-5.3 -27.6,-5.3 -19.2,0 -37.2,7.3 -51,20.5 -1.8,-0.8 -3.8,-1.2 -5.9,-1.2 -4.1,0 -7.9,1.6 -10.8,4.5 -5.9,5.9 -5.9,15.6 0,21.6 l 96,96 c 2.9,2.9 6.7,4.5 10.8,4.5 4.1,0 7.9,-1.6 10.8,-4.5 4.5,-4.5 5.6,-11.1 3.3,-16.7 20.6,-21.5 25.6,-52.4 15.1,-78.5 l 9.3,-9.3 c 1.1,-1.1 1.1,-2.8 0,-3.9 L 527.8,347 665.2,209.6 c 6.2,-6.1 6.2,-16.1 0.1,-22.3 z m -174,237.6 -63.7,-63.7 c 16.4,-15.6 36.4,-24.8 54,-24.8 5.6,0 10.8,1 15.3,2.9 0.1,0.1 0.2,0.1 0.2,0.2 0.1,0.1 0.1,0.1 0.2,0.2 0.4,0.3 0.7,0.5 1,0.8 0.1,0.1 0.3,0.2 0.4,0.3 0.3,0.2 0.6,0.4 0.9,0.7 0.2,0.1 0.3,0.3 0.5,0.4 0.2,0.2 0.5,0.4 0.7,0.6 0.2,0.2 0.4,0.3 0.6,0.5 0.2,0.2 0.4,0.4 0.6,0.5 0.2,0.2 0.5,0.4 0.7,0.6 0.2,0.2 0.4,0.3 0.5,0.5 0.3,0.2 0.5,0.5 0.8,0.7 0.1,0.1 0.3,0.3 0.4,0.4 0.4,0.4 0.8,0.8 1.2,1.2 0.4,0.4 0.8,0.8 1.2,1.2 0.1,0.1 0.2,0.2 0.2,0.3 0.3,0.3 0.6,0.7 0.9,1 0.1,0.1 0.1,0.1 0.2,0.2 0.3,0.4 0.6,0.7 0.9,1.1 0,0 0.1,0.1 0.1,0.1 0.3,0.4 0.7,0.8 1,1.2 0,0 0,0 0,0 1,1.3 2,2.6 3,3.9 8,18.5 -0.4,46.6 -21.8,69 z m -3.1,7.3 c 0,3 -1.2,5.8 -3.3,7.9 -2.1,2.1 -4.9,3.3 -7.9,3.3 -1.1,0 -2.1,-0.2 -3.1,-0.5 l -64.3,-64.3 c -0.3,-1 -0.5,-2.1 -0.5,-3.1 0,-3 1.2,-5.8 3.3,-7.9 2.1,-2.1 4.9,-3.3 7.9,-3.3 1.1,0 2.1,0.2 3.1,0.5 l 64.3,64.3 c 0.3,1 0.5,2.1 0.5,3.1 z m 27.6,-82.3 c -0.2,-0.2 -0.4,-0.5 -0.6,-0.7 -0.4,-0.5 -0.8,-1 -1.2,-1.5 -0.1,-0.2 -0.3,-0.3 -0.4,-0.5 -0.5,-0.6 -1.1,-1.3 -1.7,-1.9 -0.1,-0.2 -0.3,-0.3 -0.4,-0.5 -0.6,-0.6 -1.2,-1.3 -1.8,-1.9 -0.6,-0.6 -1.3,-1.3 -1.9,-1.9 -0.1,-0.1 -0.3,-0.2 -0.4,-0.4 -0.6,-0.6 -1.3,-1.2 -2,-1.7 -0.1,-0.1 -0.2,-0.2 -0.3,-0.3 -0.7,-0.6 -1.4,-1.2 -2.1,-1.7 0,0 0,0 0,0 -0.1,-0.1 -0.2,-0.2 -0.3,-0.3 l 3.6,-3.6 13.3,13.3 -3.6,3.6 c -0.1,0 -0.2,0 -0.2,0 z m -1.9,-16.8 142.8,-142.8 c 0.5,-0.5 1.2,-0.9 1.8,-1 1,0.5 2,1.2 2.9,2 0.9,0.9 1.5,1.8 2,2.9 -0.2,0.7 -0.5,1.3 -1,1.8 L 519.5,338.7 Z M 646.8,191.2 c 2,-2 4.5,-3 7.3,-3 0.3,0 0.5,0 0.8,0 0,0 -0.1,0.1 -0.1,0.1 l -142.9,142.8 -2.5,-2.5 z m -150.5,132 7.3,7.3 c 0,0 0,0 0,0 l 0.7,0.7 -3.9,3.9 c -3.2,-2.3 -6.5,-4.3 -9.9,-6 z m -85,21.7 c 12.6,-11.7 29,-18.1 46.3,-18.1 9.4,0 18.5,1.9 26.9,5.5 0.1,0 0.1,0.1 0.2,0.1 1.3,0.6 2.5,1.2 3.8,1.8 -2.2,-0.3 -4.5,-0.5 -6.8,-0.5 -18.3,0 -39,9.5 -55.9,25.6 l -14.2,-14.2 c -0.2,-0.1 -0.3,-0.2 -0.3,-0.2 z m -17.5,4 c 1.8,-1.8 4.3,-2.9 6.9,-2.9 1.9,0 3.7,0.5 5.3,1.6 0.1,0 0.1,0.1 0.2,0.1 0.2,0.1 0.4,0.3 0.6,0.5 0.1,0 0.1,0.1 0.2,0.1 0.2,0.2 0.4,0.4 0.6,0.6 l 12.7,12.7 c -3.7,0 -7.2,1.5 -9.8,4.1 -2.6,2.6 -4.1,6.1 -4.1,9.8 l -12.7,-12.7 c -3.8,-3.8 -3.8,-10 0.1,-13.9 z m 109.8,109.9 c -1.8,1.8 -4.3,2.9 -6.9,2.9 -2.6,0 -5.1,-1 -6.9,-2.9 l -12.7,-12.7 c 3.7,0 7.2,-1.5 9.8,-4.1 2.6,-2.6 4.1,-6.1 4.1,-9.8 l 12.7,12.7 c 0.2,0.2 0.4,0.4 0.6,0.7 0,0 0.1,0.1 0.1,0.1 0.2,0.2 0.3,0.5 0.5,0.7 0,0 0.1,0.1 0.1,0.1 2.4,3.9 1.9,9 -1.4,12.3 z m 4.1,-17.5 c -0.1,-0.1 -0.1,-0.1 -0.2,-0.2 l -14.2,-14.2 c 12.6,-13.2 21.2,-28.7 24.3,-43.8 1.4,-6.7 1.7,-13.1 0.9,-18.8 12.5,24.8 8.9,55.7 -10.8,77 z m 15.8,-79.2 c -0.2,-0.4 -0.4,-0.8 -0.6,-1.2 -0.1,-0.2 -0.2,-0.3 -0.2,-0.5 -0.5,-0.9 -1,-1.8 -1.5,-2.6 -0.1,-0.1 -0.1,-0.3 -0.2,-0.4 -0.3,-0.4 -0.5,-0.9 -0.8,-1.3 -0.2,-0.3 -0.4,-0.6 -0.5,-0.8 -0.4,-0.6 -0.8,-1.2 -1.2,-1.7 -0.2,-0.4 -0.5,-0.7 -0.7,-1.1 -0.1,-0.1 -0.2,-0.3 -0.3,-0.4 l 3.9,-3.9 0.7,0.7 c 0,0 0,0 0,0 l 7.3,7.3 z M 661.4,205.8 524,343.2 521.5,340.7 664.3,197.9 c 0,0 0.1,-0.1 0.1,-0.1 0.2,2.8 -0.8,5.8 -3,8 z"
   id="path24"
   inkscape:connector-curvature="0"
   style="fill:#262262" />
	<g
   id="g82">
		<path
   d="m 750,369.5 c -0.2,-0.5 -0.8,-0.9 -1.3,-0.9 -0.6,0 -1.1,0.3 -1.3,0.9 l -17.6,40.4 c -2.8,6.4 -2.2,13.8 1.5,19.7 3.7,5.9 9.9,9.4 16.8,9.6 0.2,0 0.4,0 0.6,0 0.2,0 0.4,0 0.6,0 6.9,-0.2 13,-3.7 16.8,-9.6 3.8,-5.9 4.3,-13.3 1.5,-19.7 z m 13.6,58.5 c -3.2,5.1 -8.5,8.1 -14.4,8.2 -0.4,0 -0.8,0 -1.1,0 -5.9,-0.2 -11.2,-3.2 -14.4,-8.2 -3.2,-5.1 -3.7,-11.5 -1.3,-17 L 748.7,373.6 765,411 c 2.4,5.6 1.9,11.9 -1.4,17 z"
   id="path26"
   inkscape:connector-curvature="0"
   style="fill:#262262" />
		<path
   d="m 748.5,431.5 c -7.1,0 -12.9,-5.8 -12.9,-12.9 0,-0.4 -0.3,-0.7 -0.7,-0.7 -0.4,0 -0.7,0.3 -0.7,0.7 0,7.9 6.4,14.4 14.4,14.4 0.4,0 0.7,-0.3 0.7,-0.7 -0.1,-0.5 -0.4,-0.8 -0.8,-0.8 z"
   id="path28"
   inkscape:connector-curvature="0"
   style="fill:#262262" />
		<path
   d="m 804.6,369.5 c -0.2,-0.5 -0.8,-0.9 -1.3,-0.9 -0.6,0 -1.1,0.3 -1.3,0.9 l -17.6,40.4 c -2.8,6.4 -2.2,13.8 1.5,19.7 3.7,5.9 9.9,9.4 16.8,9.6 0.2,0 0.4,0 0.6,0 0.2,0 0.4,0 0.6,0 6.9,-0.2 13,-3.7 16.8,-9.6 3.8,-5.9 4.3,-13.3 1.5,-19.7 z m 13.6,58.5 c -3.2,5.1 -8.5,8.1 -14.4,8.2 -0.4,0 -0.8,0 -1.1,0 -5.9,-0.2 -11.2,-3.2 -14.4,-8.2 -3.2,-5.1 -3.7,-11.5 -1.3,-17 l 16.3,-37.4 16.3,37.4 c 2.3,5.6 1.8,11.9 -1.4,17 z"
   id="path30"
   inkscape:connector-curvature="0"
   style="fill:#262262" />
		<path
   d="m 803,431.5 c -7.1,0 -12.9,-5.8 -12.9,-12.9 0,-0.4 -0.3,-0.7 -0.7,-0.7 -0.4,0 -0.7,0.3 -0.7,0.7 0,7.9 6.4,14.4 14.4,14.4 0.4,0 0.7,-0.3 0.7,-0.7 -0.1,-0.5 -0.4,-0.8 -0.8,-0.8 z"
   id="path32"
   inkscape:connector-curvature="0"
   style="fill:#262262" />
		<path
   d="m 859.1,369.5 c -0.2,-0.5 -0.8,-0.9 -1.3,-0.9 -0.6,0 -1.1,0.3 -1.3,0.9 l -17.6,40.4 c -2.8,6.4 -2.2,13.8 1.5,19.7 3.7,5.9 9.9,9.4 16.8,9.6 0.2,0 0.4,0 0.6,0 0.2,0 0.4,0 0.6,0 6.9,-0.2 13,-3.7 16.8,-9.6 3.8,-5.9 4.3,-13.3 1.5,-19.7 z m 13.7,58.5 c -3.2,5.1 -8.5,8.1 -14.4,8.2 -0.4,0 -0.8,0 -1.1,0 -5.9,-0.2 -11.2,-3.2 -14.4,-8.2 -3.2,-5.1 -3.7,-11.5 -1.3,-17 l 16.3,-37.4 16.3,37.4 c 2.3,5.6 1.8,11.9 -1.4,17 z"
   id="path34"
   inkscape:connector-curvature="0"
   style="fill:#262262" />
		<path
   d="m 857.6,431.5 c -7.1,0 -12.9,-5.8 -12.9,-12.9 0,-0.4 -0.3,-0.7 -0.7,-0.7 -0.4,0 -0.7,0.3 -0.7,0.7 0,7.9 6.4,14.4 14.4,14.4 0.4,0 0.7,-0.3 0.7,-0.7 -0.1,-0.5 -0.4,-0.8 -0.8,-0.8 z"
   id="path36"
   inkscape:connector-curvature="0"
   style="fill:#262262" />
		<path
   d="m 913.7,369.5 c -0.2,-0.5 -0.8,-0.9 -1.3,-0.9 -0.6,0 -1.1,0.3 -1.3,0.9 l -17.6,40.4 c -2.8,6.4 -2.2,13.8 1.5,19.7 3.7,5.9 9.9,9.4 16.8,9.6 0.2,0 0.4,0 0.6,0 0.2,0 0.4,0 0.6,0 6.9,-0.2 13,-3.7 16.8,-9.6 3.8,-5.9 4.3,-13.3 1.5,-19.7 z m 13.6,58.5 c -3.2,5.1 -8.5,8.1 -14.4,8.2 -0.4,0 -0.8,0 -1.1,0 -5.9,-0.2 -11.2,-3.2 -14.4,-8.2 -3.2,-5.1 -3.7,-11.5 -1.3,-17 l 16.3,-37.4 16.3,37.4 c 2.4,5.6 1.9,11.9 -1.4,17 z"
   id="path38"
   inkscape:connector-curvature="0"
   style="fill:#262262" />
		<path
   d="m 912.1,431.5 c -7.1,0 -12.9,-5.8 -12.9,-12.9 0,-0.4 -0.3,-0.7 -0.7,-0.7 -0.4,0 -0.7,0.3 -0.7,0.7 0,7.9 6.4,14.4 14.4,14.4 0.4,0 0.7,-0.3 0.7,-0.7 0,-0.5 -0.4,-0.8 -0.8,-0.8 z"
   id="path40"
   inkscape:connector-curvature="0"
   style="fill:#262262" />
		<path
   d="m 968.3,369.5 c -0.2,-0.5 -0.8,-0.9 -1.3,-0.9 -0.6,0 -1.1,0.3 -1.3,0.9 L 948,409.9 c -2.8,6.4 -2.2,13.8 1.5,19.7 3.7,5.9 9.9,9.4 16.8,9.6 0.2,0 0.4,0 0.6,0 0.2,0 0.4,0 0.6,0 6.9,-0.2 13,-3.7 16.8,-9.6 3.8,-5.9 4.3,-13.3 1.5,-19.7 z m 13.6,58.5 c -3.2,5.1 -8.5,8.1 -14.4,8.2 -0.4,0 -0.8,0 -1.1,0 -5.9,-0.2 -11.2,-3.2 -14.4,-8.2 -3.2,-5.1 -3.7,-11.5 -1.3,-17 L 967,373.6 983.3,411 c 2.3,5.6 1.8,11.9 -1.4,17 z"
   id="path42"
   inkscape:connector-curvature="0"
   style="fill:#262262" />
		<path
   d="m 966.7,431.5 c -7.1,0 -12.9,-5.8 -12.9,-12.9 0,-0.4 -0.3,-0.7 -0.7,-0.7 -0.4,0 -0.7,0.3 -0.7,0.7 0,7.9 6.4,14.4 14.4,14.4 0.4,0 0.7,-0.3 0.7,-0.7 -0.1,-0.5 -0.4,-0.8 -0.8,-0.8 z"
   id="path44"
   inkscape:connector-curvature="0"
   style="fill:#262262" />
		<path
   d="m 997.3,196 h -279 c -1.5,0 -2.7,1.2 -2.7,2.7 v 252.4 c 0,1.5 1.2,2.7 2.7,2.7 h 279 c 1.5,0 2.7,-1.2 2.7,-2.7 V 198.7 c 0,-1.5 -1.2,-2.7 -2.7,-2.7 z m -258,5.5 -18.3,39.8 v -29.8 l 4.6,-10 z m 16.7,0 -30.9,67.3 H 721 v -20.9 l 21.3,-46.4 z m 16.6,0 -30.9,67.3 H 728 l 30.9,-67.3 z m 16.7,0 -30.9,67.3 h -13.7 l 30.9,-67.3 z m 16.7,0 -30.9,67.3 h -13.7 l 30.9,-67.3 z m 16.7,0 -30.9,67.3 H 778.1 L 809,201.5 Z m 16.7,0 -30.9,67.3 h -13.7 l 30.9,-67.3 z m 16.6,0 -30.9,67.3 h -13.7 l 30.9,-67.3 z m 16.7,0 -30.9,67.3 H 828.1 L 859,201.5 Z m 16.7,0 -30.9,67.3 h -13.7 l 30.9,-67.3 z m 16.7,0 -30.9,67.3 h -13.7 l 30.9,-67.3 z m 16.6,0 -30.9,67.3 H 878.1 L 909,201.5 Z m 16.7,0 -30.9,67.3 h -13.7 l 30.9,-67.3 z m 16.7,0 -30.9,67.3 h -13.7 l 30.9,-67.3 z m 16.7,0 -30.9,67.3 h -13.7 l 30.9,-67.3 z m 16.7,0 -30.9,67.3 h -13.7 l 30.9,-67.3 z M 721,274.3 h 273.5 v 81.5 H 721 Z m 257.3,-5.5 16.3,-35.5 v 35.5 z m 16.3,-42.1 -19.3,42.1 h -13.7 l 30.9,-67.3 h 2.1 z m -272,-25.2 -1.6,3.4 v -3.4 z M 721,448.4 v -87.2 h 273.5 v 87.2 z"
   id="path46"
   inkscape:connector-curvature="0"
   style="fill:#262262" />
		<path
   d="m 750.5,282.5 c -4.2,0 -7.7,3.4 -7.7,7.7 0,4.2 3.4,7.7 7.7,7.7 4.2,0 7.7,-3.4 7.7,-7.7 -0.1,-4.3 -3.5,-7.7 -7.7,-7.7 z m 0,12.5 c -2.7,0 -4.9,-2.2 -4.9,-4.9 0,-2.7 2.2,-4.9 4.9,-4.9 2.7,0 4.9,2.2 4.9,4.9 0,2.7 -2.2,4.9 -4.9,4.9 z"
   id="path48"
   inkscape:connector-curvature="0"
   style="fill:#262262" />
		<path
   d="m 750.5,333.4 c -4.2,0 -7.7,3.4 -7.7,7.7 0,4.3 3.4,7.7 7.7,7.7 4.2,0 7.7,-3.4 7.7,-7.7 0,-4.3 -3.5,-7.7 -7.7,-7.7 z m 0,12.6 c -2.7,0 -4.9,-2.2 -4.9,-4.9 0,-2.7 2.2,-4.9 4.9,-4.9 2.7,0 4.9,2.2 4.9,4.9 0,2.7 -2.2,4.9 -4.9,4.9 z"
   id="path50"
   inkscape:connector-curvature="0"
   style="fill:#262262" />
		<path
   d="m 793.4,282.5 c -4.2,0 -7.7,3.4 -7.7,7.7 0,4.2 3.4,7.7 7.7,7.7 4.2,0 7.7,-3.4 7.7,-7.7 0,-4.3 -3.5,-7.7 -7.7,-7.7 z m 0,12.5 c -2.7,0 -4.9,-2.2 -4.9,-4.9 0,-2.7 2.2,-4.9 4.9,-4.9 2.7,0 4.9,2.2 4.9,4.9 0,2.7 -2.2,4.9 -4.9,4.9 z"
   id="path52"
   inkscape:connector-curvature="0"
   style="fill:#262262" />
		<path
   d="m 793.4,333.4 c -4.2,0 -7.7,3.4 -7.7,7.7 0,4.3 3.4,7.7 7.7,7.7 4.2,0 7.7,-3.4 7.7,-7.7 0,-4.3 -3.5,-7.7 -7.7,-7.7 z m 0,12.6 c -2.7,0 -4.9,-2.2 -4.9,-4.9 0,-2.7 2.2,-4.9 4.9,-4.9 2.7,0 4.9,2.2 4.9,4.9 0,2.7 -2.2,4.9 -4.9,4.9 z"
   id="path54"
   inkscape:connector-curvature="0"
   style="fill:#262262" />
		<path
   d="m 836.3,282.5 c -4.2,0 -7.7,3.4 -7.7,7.7 0,4.2 3.4,7.7 7.7,7.7 4.2,0 7.7,-3.4 7.7,-7.7 0,-4.3 -3.4,-7.7 -7.7,-7.7 z m 0,12.5 c -2.7,0 -4.9,-2.2 -4.9,-4.9 0,-2.7 2.2,-4.9 4.9,-4.9 2.7,0 4.9,2.2 4.9,4.9 0.1,2.7 -2.1,4.9 -4.9,4.9 z"
   id="path56"
   inkscape:connector-curvature="0"
   style="fill:#262262" />
		<path
   d="m 836.3,333.4 c -4.2,0 -7.7,3.4 -7.7,7.7 0,4.3 3.4,7.7 7.7,7.7 4.2,0 7.7,-3.4 7.7,-7.7 0,-4.3 -3.4,-7.7 -7.7,-7.7 z m 0,12.6 c -2.7,0 -4.9,-2.2 -4.9,-4.9 0,-2.7 2.2,-4.9 4.9,-4.9 2.7,0 4.9,2.2 4.9,4.9 0.1,2.7 -2.1,4.9 -4.9,4.9 z"
   id="path58"
   inkscape:connector-curvature="0"
   style="fill:#262262" />
		<path
   d="m 879.3,282.5 c -4.2,0 -7.7,3.4 -7.7,7.7 0,4.2 3.4,7.7 7.7,7.7 4.3,0 7.7,-3.4 7.7,-7.7 -0.1,-4.3 -3.5,-7.7 -7.7,-7.7 z m 0,12.5 c -2.7,0 -4.9,-2.2 -4.9,-4.9 0,-2.7 2.2,-4.9 4.9,-4.9 2.7,0 4.9,2.2 4.9,4.9 0,2.7 -2.2,4.9 -4.9,4.9 z"
   id="path60"
   inkscape:connector-curvature="0"
   style="fill:#262262" />
		<path
   d="m 879.3,333.4 c -4.2,0 -7.7,3.4 -7.7,7.7 0,4.3 3.4,7.7 7.7,7.7 4.3,0 7.7,-3.4 7.7,-7.7 0,-4.3 -3.5,-7.7 -7.7,-7.7 z m 0,12.6 c -2.7,0 -4.9,-2.2 -4.9,-4.9 0,-2.7 2.2,-4.9 4.9,-4.9 2.7,0 4.9,2.2 4.9,4.9 0,2.7 -2.2,4.9 -4.9,4.9 z"
   id="path62"
   inkscape:connector-curvature="0"
   style="fill:#262262" />
		<path
   d="m 922.2,282.5 c -4.2,0 -7.7,3.4 -7.7,7.7 0,4.2 3.4,7.7 7.7,7.7 4.3,0 7.7,-3.4 7.7,-7.7 -0.1,-4.3 -3.5,-7.7 -7.7,-7.7 z m 0,12.5 c -2.7,0 -4.9,-2.2 -4.9,-4.9 0,-2.7 2.2,-4.9 4.9,-4.9 2.7,0 4.9,2.2 4.9,4.9 0,2.7 -2.2,4.9 -4.9,4.9 z"
   id="path64"
   inkscape:connector-curvature="0"
   style="fill:#262262" />
		<path
   d="m 922.2,333.4 c -4.2,0 -7.7,3.4 -7.7,7.7 0,4.3 3.4,7.7 7.7,7.7 4.3,0 7.7,-3.4 7.7,-7.7 0,-4.3 -3.5,-7.7 -7.7,-7.7 z m 0,12.6 c -2.7,0 -4.9,-2.2 -4.9,-4.9 0,-2.7 2.2,-4.9 4.9,-4.9 2.7,0 4.9,2.2 4.9,4.9 0,2.7 -2.2,4.9 -4.9,4.9 z"
   id="path66"
   inkscape:connector-curvature="0"
   style="fill:#262262" />
		<path
   d="m 965.1,297.8 c 4.2,0 7.7,-3.4 7.7,-7.7 0,-4.2 -3.4,-7.7 -7.7,-7.7 -4.2,0 -7.7,3.4 -7.7,7.7 0.1,4.2 3.5,7.7 7.7,7.7 z m 0,-12.6 c 2.7,0 4.9,2.2 4.9,4.9 0,2.7 -2.2,4.9 -4.9,4.9 -2.7,0 -4.9,-2.2 -4.9,-4.9 0,-2.7 2.2,-4.9 4.9,-4.9 z"
   id="path68"
   inkscape:connector-curvature="0"
   style="fill:#262262" />
		<path
   d="m 965.1,333.4 c -4.2,0 -7.7,3.4 -7.7,7.7 0,4.3 3.4,7.7 7.7,7.7 4.2,0 7.7,-3.4 7.7,-7.7 0,-4.3 -3.5,-7.7 -7.7,-7.7 z m 0,12.6 c -2.7,0 -4.9,-2.2 -4.9,-4.9 0,-2.7 2.2,-4.9 4.9,-4.9 2.7,0 4.9,2.2 4.9,4.9 0,2.7 -2.2,4.9 -4.9,4.9 z"
   id="path70"
   inkscape:connector-curvature="0"
   style="fill:#262262" />
		<path
   d="m 771.4,306 c -4.2,0 -7.7,3.4 -7.7,7.7 0,4.2 3.4,7.7 7.7,7.7 4.2,0 7.7,-3.4 7.7,-7.7 -0.1,-4.3 -3.5,-7.7 -7.7,-7.7 z m 0,12.6 c -2.7,0 -4.9,-2.2 -4.9,-4.9 0,-2.7 2.2,-4.9 4.9,-4.9 2.7,0 4.9,2.2 4.9,4.9 0,2.7 -2.2,4.9 -4.9,4.9 z"
   id="path72"
   inkscape:connector-curvature="0"
   style="fill:#262262" />
		<path
   d="m 815,306 c -4.2,0 -7.7,3.4 -7.7,7.7 0,4.2 3.4,7.7 7.7,7.7 4.2,0 7.7,-3.4 7.7,-7.7 0,-4.3 -3.4,-7.7 -7.7,-7.7 z m 0,12.6 c -2.7,0 -4.9,-2.2 -4.9,-4.9 0,-2.7 2.2,-4.9 4.9,-4.9 2.7,0 4.9,2.2 4.9,4.9 0.1,2.7 -2.1,4.9 -4.9,4.9 z"
   id="path74"
   inkscape:connector-curvature="0"
   style="fill:#262262" />
		<path
   d="m 858.7,306 c -4.2,0 -7.7,3.4 -7.7,7.7 0,4.2 3.4,7.7 7.7,7.7 4.2,0 7.7,-3.4 7.7,-7.7 -0.1,-4.3 -3.5,-7.7 -7.7,-7.7 z m 0,12.6 c -2.7,0 -4.9,-2.2 -4.9,-4.9 0,-2.7 2.2,-4.9 4.9,-4.9 2.7,0 4.9,2.2 4.9,4.9 0,2.7 -2.2,4.9 -4.9,4.9 z"
   id="path76"
   inkscape:connector-curvature="0"
   style="fill:#262262" />
		<path
   d="m 902.3,306 c -4.2,0 -7.7,3.4 -7.7,7.7 0,4.2 3.4,7.7 7.7,7.7 4.2,0 7.7,-3.4 7.7,-7.7 0,-4.3 -3.4,-7.7 -7.7,-7.7 z m 0,12.6 c -2.7,0 -4.9,-2.2 -4.9,-4.9 0,-2.7 2.2,-4.9 4.9,-4.9 2.7,0 4.9,2.2 4.9,4.9 0.1,2.7 -2.1,4.9 -4.9,4.9 z"
   id="path78"
   inkscape:connector-curvature="0"
   style="fill:#262262" />
		<path
   d="m 946,306 c -4.2,0 -7.7,3.4 -7.7,7.7 0,4.2 3.4,7.7 7.7,7.7 4.2,0 7.7,-3.4 7.7,-7.7 -0.1,-4.3 -3.5,-7.7 -7.7,-7.7 z m 0,12.6 c -2.7,0 -4.9,-2.2 -4.9,-4.9 0,-2.7 2.2,-4.9 4.9,-4.9 2.7,0 4.9,2.2 4.9,4.9 0,2.7 -2.2,4.9 -4.9,4.9 z"
   id="path80"
   inkscape:connector-curvature="0"
   style="fill:#262262" />
	</g>
	<g
   id="g90">
		<path
   d="M 1309.3,331 H 1247 v -88.5 h 27.5 c 1.2,0 2.3,-0.8 2.6,-2 0.3,-1.2 -0.1,-2.4 -1.2,-3.1 l -86.6,-54.3 c -0.9,-0.6 -2,-0.6 -2.9,0 l -86.6,54.3 c -1,0.6 -1.5,1.9 -1.2,3.1 0.3,1.2 1.4,2 2.6,2 h 27.5 V 331 h -62.3 c -1.5,0 -2.7,1.2 -2.7,2.7 0,1.5 1.2,2.7 2.7,2.7 h 12.7 l -11.4,16.7 c -0.4,0.6 -0.3,1.5 0.4,1.9 0.2,0.2 0.5,0.2 0.8,0.2 0.4,0 0.9,-0.2 1.1,-0.6 l 12.5,-18.2 h 9.1 l -11.4,16.7 c -0.4,0.6 -0.3,1.5 0.4,1.9 0.2,0.2 0.5,0.2 0.8,0.2 0.4,0 0.9,-0.2 1.1,-0.6 l 12.5,-18.2 h 9.1 l -11.4,16.7 c -0.4,0.6 -0.3,1.5 0.4,1.9 0.2,0.2 0.5,0.2 0.8,0.2 0.4,0 0.9,-0.2 1.1,-0.6 l 12.5,-18.2 h 9.1 l -11.4,16.7 c -0.4,0.6 -0.3,1.5 0.4,1.9 0.2,0.2 0.5,0.2 0.8,0.2 0.4,0 0.9,-0.2 1.1,-0.6 l 12.5,-18.2 h 9.1 l -11.4,16.7 c -0.4,0.6 -0.3,1.5 0.4,1.9 0.2,0.2 0.5,0.2 0.8,0.2 0.4,0 0.9,-0.2 1.1,-0.6 l 12.5,-18.2 h 4 v 29.8 h -32.6 c -1.5,0 -2.7,1.2 -2.7,2.7 v 69.7 c 0,1.5 1.2,2.7 2.7,2.7 h 13.4 c 2,6.9 6.1,13.1 11.7,17.7 6.3,5.1 14.2,7.9 22.4,7.9 h 73.3 c 8.1,0 16.1,-2.8 22.4,-7.9 5.6,-4.6 9.7,-10.8 11.7,-17.7 h 13.4 c 1.5,0 2.7,-1.2 2.7,-2.7 V 369 c 0,-1.5 -1.2,-2.7 -2.7,-2.7 h -32.6 v -29.8 h 4.7 9.3 l -11.4,16.7 c -0.4,0.6 -0.3,1.5 0.4,1.9 0.2,0.2 0.5,0.2 0.8,0.2 0.4,0 0.9,-0.2 1.1,-0.6 l 12.5,-18.2 h 9.1 l -11.4,16.7 c -0.4,0.6 -0.3,1.5 0.4,1.9 0.2,0.2 0.5,0.2 0.8,0.2 0.4,0 0.9,-0.2 1.1,-0.6 l 12.5,-18.2 h 9.1 l -11.4,16.7 c -0.4,0.6 -0.3,1.5 0.4,1.9 0.2,0.2 0.5,0.2 0.8,0.2 0.4,0 0.9,-0.2 1.1,-0.6 l 12.5,-18.2 h 9.1 l -11.4,16.7 c -0.4,0.6 -0.3,1.5 0.4,1.9 0.2,0.2 0.5,0.2 0.8,0.2 0.4,0 0.9,-0.2 1.1,-0.6 l 12.5,-18.2 h 9.1 l -11.4,16.7 c -0.4,0.6 -0.3,1.5 0.4,1.9 0.2,0.2 0.5,0.2 0.8,0.2 0.4,0 0.9,-0.2 1.1,-0.6 l 12.5,-18.2 h 2.6 c 1.5,0 2.7,-1.2 2.7,-2.7 0,-1.5 -1.5,-2.8 -3,-2.8 z m -65,-94 h -9.2 l -36.8,-41.9 66.7,41.9 z m -56.3,-48.3 2.3,1.4 41.2,47 h -87 l 41.2,-47 z m -10.4,6.5 -36.8,41.9 h -9.2 -20.7 z m 59.2,176.6 h 32.6 V 436 h -12.8 c -1.3,0 -2.4,0.9 -2.7,2.1 -3,13.6 -15.3,23.5 -29.3,23.5 h -73.3 c -14,0 -26.3,-9.9 -29.3,-23.5 -0.3,-1.3 -1.4,-2.1 -2.7,-2.1 h -12.8 v -64.2 h 32.6 c 1.5,0 2.7,-1.2 2.7,-2.7 v -32.6 h 4.5 v 39.8 h -32.6 c -1.5,0 -2.7,1.2 -2.7,2.7 v 51.3 c 0,1.5 1.2,2.7 2.7,2.7 h 4.9 c 1.5,0 2.7,-1.2 2.7,-2.6 0.7,-16.1 13.8,-28.8 30,-28.8 h 73.3 c 16.2,0 29.3,12.6 30,28.8 0.1,1.5 1.3,2.6 2.7,2.6 h 4.9 c 1.5,0 2.7,-1.2 2.7,-2.7 V 379 c 0,-1.5 -1.2,-2.7 -2.7,-2.7 h -32.6 v -39.8 h 4.5 V 369 c 0,1.6 1.2,2.8 2.7,2.8 z m -70.4,-35.3 -11.4,16.7 c -0.4,0.6 -0.3,1.5 0.4,1.9 0.2,0.2 0.5,0.2 0.8,0.2 0.4,0 0.9,-0.2 1.1,-0.6 l 12.5,-18.2 h 9.1 l -11.4,16.7 c -0.4,0.6 -0.3,1.5 0.4,1.9 0.2,0.2 0.5,0.2 0.8,0.2 0.4,0 0.9,-0.2 1.1,-0.6 l 12.5,-18.2 h 9.1 l -11.4,16.7 c -0.4,0.6 -0.3,1.5 0.4,1.9 0.2,0.2 0.5,0.2 0.8,0.2 0.4,0 0.9,-0.2 1.1,-0.6 l 12.5,-18.2 h 9.1 l -11.4,16.7 c -0.4,0.6 -0.3,1.5 0.4,1.9 0.2,0.2 0.5,0.2 0.8,0.2 0.4,0 0.9,-0.2 1.1,-0.6 l 12.5,-18.2 h 9.1 l -11.4,16.7 c -0.4,0.6 -0.3,1.5 0.4,1.9 0.2,0.2 0.5,0.2 0.8,0.2 0.4,0 0.9,-0.2 1.1,-0.6 l 12.5,-18.2 h 4.6 V 379 c 0,1.5 1.2,2.7 2.7,2.7 h 32.6 V 425 c -3.1,-16.5 -17.5,-28.8 -34.9,-28.8 h -73.3 c -17.3,0 -31.8,12.3 -34.9,28.8 v -43.3 h 32.6 c 1.5,0 2.7,-1.2 2.7,-2.7 v -42.5 z m 15.8,-5.5 h -26.5 v -57.3 h 26.5 z m 54.6,0 h -9.9 -42 v -58.7 c 0,-0.8 -0.6,-1.4 -1.4,-1.4 h -29.2 c -0.8,0 -1.4,0.6 -1.4,1.4 V 331 h -4 -9.9 -4.7 v -88.5 h 107.2 V 331 Z"
   id="path84"
   inkscape:connector-curvature="0"
   style="fill:#262262" />
		<path
   d="m 1228,260.5 h -27.8 c -0.8,0 -1.4,0.6 -1.4,1.4 v 27.8 c 0,0.8 0.6,1.4 1.4,1.4 h 27.8 c 0.8,0 1.4,-0.6 1.4,-1.4 v -27.8 c 0,-0.8 -0.6,-1.4 -1.4,-1.4 z m -1.4,27.9 h -25.1 v -25.1 h 25.1 z"
   id="path86"
   inkscape:connector-curvature="0"
   style="fill:#262262" />
		<path
   d="m 1230.6,428.4 c -11.2,1.9 -9.8,4.8 -24.9,3.2 -15.1,-1.5 -13.6,-3.7 -27.7,-4.3 -14.1,-0.6 -15.4,3.8 -32.8,5.8 -5.6,0.7 -11.1,-0.4 -16.1,-2 0,0.2 0,0.3 0,0.5 v 0 c 0,13.3 10.7,24 24,24 h 69.7 c 13.3,0 24,-10.7 24,-24 v 0 c 0,-0.7 0,-1.3 -0.1,-2 -5.4,-1.1 -11.4,-1.9 -16.1,-1.2 z"
   id="path88"
   inkscape:connector-curvature="0"
   style="fill:#262262" />
	</g>
	<g
   id="g96">
		<path
   d="M 255.3,512.8 H 77.7 c -1.5,0 -2.7,1.2 -2.7,2.7 v 29.2 c 0,1.5 1.2,2.7 2.7,2.7 h 15.5 c 1.4,17.5 16.1,31.4 34,31.4 h 12.1 v 38.7 H 128 c -19.2,0 -34.9,15.7 -34.9,34.9 v 61.8 h -5 c -0.7,0 -1.4,0.3 -1.9,0.8 -0.5,0.5 -0.8,1.2 -0.8,2 0.2,21.5 8.8,41.7 24.1,56.8 15.3,15.1 35.6,23.5 57.1,23.5 21.5,0 41.8,-8.3 57.1,-23.5 15.3,-15.1 23.8,-35.3 24.1,-56.8 0,-0.7 -0.3,-1.4 -0.8,-2 -0.5,-0.5 -1.2,-0.8 -1.9,-0.8 h -5 v -12.1 h 15.3 c 1.5,0 2.7,-1.2 2.7,-2.7 v -47.3 c 0,-1.5 -1.2,-2.7 -2.7,-2.7 h -15.5 c -1.5,-17.8 -16.5,-31.9 -34.8,-31.9 h -11.4 v -38.7 h 12.1 c 17.9,0 32.6,-13.8 34,-31.4 h 15.5 c 1.5,0 2.7,-1.2 2.7,-2.7 v -29.2 c 0,-1.4 -1.2,-2.7 -2.7,-2.7 z m -49.7,201.5 h -78.2 v -69.7 c 0,-9.9 6.3,-18.4 15.2,-21.6 h 47.9 c 8.8,3.2 15.2,11.7 15.2,21.6 v 69.7 z m -39.1,77.5 c -3.3,0 -6.6,-0.2 -9.9,-0.7 C 138,783.4 123.9,754.5 123,719.7 h 87 c -0.9,34.8 -15,63.7 -33.6,71.4 -3.3,0.5 -6.6,0.7 -9.9,0.7 z m -9.2,-174.2 v -38.7 h 18.5 v 38.7 z M 191,573.4 h -48.9 v 0 c -8.6,-3.1 -14.7,-11.4 -14.7,-21 v -4.9 h 78.3 v 4.9 c 0,9.7 -6.2,17.9 -14.7,21 z m -74,-31.3 v -23.8 h 99 v 23.8 z M 80.5,518.3 h 33.8 v 23.8 H 95.8 80.5 Z m 18.2,29.2 h 25.9 v 4.9 c 0,8.8 4.5,16.5 11.4,21 h -8.8 c -14.9,0 -27.1,-11.3 -28.5,-25.9 z m 46.1,31.4 h 9.8 v 38.7 h -9.8 z m -46.3,73.5 c 0,-16.2 13.2,-29.4 29.4,-29.4 h 8.5 c -7.1,4.6 -11.8,12.5 -11.8,21.6 v 69.7 H 98.5 Z m -7.6,67.4 h 4.9 24.5 c 0.5,20 5.2,38.6 13.4,52.8 4.3,7.4 9.2,13.1 14.6,17 -31.7,-7.9 -55.8,-36 -57.4,-69.8 z m 93.8,69.8 c 5.4,-4 10.3,-9.7 14.6,-17 8.2,-14.2 12.9,-32.8 13.4,-52.8 h 24.5 4.9 c -1.6,33.8 -25.7,61.9 -57.4,69.8 z m 67.8,-103.9 h -12.6 v -20.1 h 12.6 z m -12.6,11.1 v -8.3 h 12.6 v 8.3 z m 12.6,-33.9 h -12.6 v -8 h 12.6 z m -18,-10.5 v 47 14.8 h -26.1 v -69.7 c 0,-9 -4.7,-17 -11.8,-21.6 h 8.5 c 16.2,0.1 29.4,13.3 29.4,29.5 z m -46.3,-34.8 h -9.8 v -38.7 h 9.8 z m 17.6,-44.2 H 197 c 6.8,-4.5 11.4,-12.2 11.4,-21 v -4.9 h 25.9 c -1.3,14.6 -13.6,25.9 -28.5,25.9 z m 46.7,-31.3 h -15.3 -18.5 v -23.8 h 33.8 z"
   id="path92"
   inkscape:connector-curvature="0"
   style="fill:#262262" />
		<path
   d="M 317.3,649.4 H 283 v -9.6 c 0,-1.5 -1.2,-2.7 -2.7,-2.7 H 263 c -1.5,0 -2.7,1.2 -2.7,2.7 v 71.4 c 0,1.5 1.2,2.7 2.7,2.7 h 17.1 c 1.5,0 2.7,-1.2 2.7,-2.7 v -9 h 34.3 c 1.5,0 2.7,-1.2 2.7,-2.7 v -47.3 c 0.2,-1.5 -1,-2.8 -2.5,-2.8 z m -51.5,10.3 h 11.7 v 31.7 h -11.7 z m 17.3,5.9 h 31.4 v 20.1 h -31.4 z m 31.4,-10.7 v 8 h -31.4 v -8 z m -37,-12.3 V 657 h -11.7 v -14.4 z m -11.7,65.8 V 694 h 11.7 v 14.4 z m 17.3,-11.6 v -8.3 h 31.4 v 8.3 z"
   id="path94"
   inkscape:connector-curvature="0"
   style="fill:#262262" />
	</g>
	<path
   d="M 640.5,512.8 H 414.8 c -1.5,0 -2.7,1.2 -2.7,2.7 v 50.2 c 0,1.5 1.2,2.7 2.7,2.7 h 18.1 c -3.5,3.5 -5.7,8.3 -5.7,13.6 0,6.9 3.7,13 9.2,16.3 -5.5,3.3 -9.2,9.4 -9.2,16.3 0,6.9 3.7,13 9.2,16.3 -5.5,3.3 -9.2,9.4 -9.2,16.3 0,6.9 3.7,13 9.2,16.3 -5.5,3.3 -9.2,9.4 -9.2,16.3 0,6.9 3.7,13 9.2,16.3 -5.5,3.3 -9.2,9.4 -9.2,16.3 0,6.9 3.7,13 9.2,16.3 -5.5,3.3 -9.2,9.4 -9.2,16.3 0,6.9 3.7,13 9.2,16.3 -5.5,3.3 -9.2,9.4 -9.2,16.3 0,10.5 8.6,19.1 19.1,19.1 h 162.8 c 10.5,0 19.1,-8.6 19.1,-19.1 0,-6.9 -3.7,-13 -9.2,-16.3 5.5,-3.3 9.2,-9.4 9.2,-16.3 0,-6.9 -3.7,-13 -9.2,-16.3 5.5,-3.3 9.2,-9.4 9.2,-16.3 0,-6.9 -3.7,-13 -9.2,-16.3 5.5,-3.3 9.2,-9.4 9.2,-16.3 0,-6.9 -3.7,-13 -9.2,-16.3 5.5,-3.3 9.2,-9.4 9.2,-16.3 0,-6.9 -3.7,-13 -9.2,-16.3 5.5,-3.3 9.2,-9.4 9.2,-16.3 0,-6.9 -3.7,-13 -9.2,-16.3 5.5,-3.3 9.2,-9.4 9.2,-16.3 0,-5.3 -2.2,-10.1 -5.7,-13.6 h 18.1 c 1.5,0 2.7,-1.2 2.7,-2.7 v -50.2 c 0,-1.4 -1.3,-2.7 -2.8,-2.7 z m -56.2,65.6 v 7.5 c 0,4.2 -2.4,7.9 -5.9,9.9 H 476.9 c -3.5,-1.9 -5.9,-5.6 -5.9,-9.9 v -7.5 c 0,-4.2 2.4,-7.9 5.9,-9.9 h 101.5 c 3.5,1.9 5.9,5.6 5.9,9.9 z m 0,32.7 v 7.5 c 0,4.2 -2.4,7.9 -5.9,9.9 H 476.9 c -3.5,-1.9 -5.9,-5.6 -5.9,-9.9 v -7.5 c 0,-4.2 2.4,-7.9 5.9,-9.9 h 101.5 c 3.5,1.9 5.9,5.6 5.9,9.9 z m 0,32.7 v 7.5 c 0,4.2 -2.4,7.9 -5.9,9.9 H 476.9 c -3.5,-1.9 -5.9,-5.6 -5.9,-9.9 v -7.5 c 0,-4.2 2.4,-7.9 5.9,-9.9 h 101.5 c 3.5,1.9 5.9,5.6 5.9,9.9 z m 0,32.6 v 7.5 c 0,4.2 -2.4,7.9 -5.9,9.9 H 476.9 c -3.5,-1.9 -5.9,-5.6 -5.9,-9.9 v -7.5 c 0,-4.2 2.4,-7.9 5.9,-9.9 h 101.5 c 3.5,2 5.9,5.7 5.9,9.9 z m 0,32.7 v 7.5 c 0,4.2 -2.4,7.9 -5.9,9.9 H 476.9 c -3.5,-1.9 -5.9,-5.6 -5.9,-9.9 v -7.5 c 0,-4.2 2.4,-7.9 5.9,-9.9 h 101.5 c 3.5,2 5.9,5.7 5.9,9.9 z m 0,32.7 v 7.5 c 0,4.2 -2.4,7.9 -5.9,9.9 H 476.9 c -3.5,-1.9 -5.9,-5.6 -5.9,-9.9 v -7.5 c 0,-4.2 2.4,-7.9 5.9,-9.9 h 101.5 c 3.5,2 5.9,5.7 5.9,9.9 z m 0,32.7 v 7.5 c 0,4.2 -2.4,7.9 -5.9,9.9 H 476.9 C 473.4,790 471,786.3 471,782 v -7.5 c 0,-4.2 2.4,-7.9 5.9,-9.9 h 101.5 c 3.5,1.9 5.9,5.6 5.9,9.9 z M 462.1,563.1 v -44.8 h 131.1 v 44.8 z m -44.6,0 v -44.8 h 41.8 v 44.8 h -13.1 z m 15.1,19 c 0,-7.5 6.1,-13.6 13.6,-13.6 h 26.1 c -2.5,2.5 -4.1,6 -4.1,9.9 v 7.5 c 0,3.8 1.6,7.3 4.1,9.9 h -26.1 c -7.5,0 -13.6,-6.1 -13.6,-13.7 z m 0,32.7 c 0,-7.5 6.1,-13.6 13.6,-13.6 h 26.1 c -2.5,2.5 -4.1,6 -4.1,9.9 v 7.5 c 0,3.8 1.6,7.3 4.1,9.9 h -26.1 c -7.5,-0.1 -13.6,-6.2 -13.6,-13.7 z m 0,32.7 c 0,-7.5 6.1,-13.6 13.6,-13.6 h 26.1 c -2.5,2.5 -4.1,6 -4.1,9.9 v 7.5 c 0,3.8 1.6,7.3 4.1,9.9 h -26.1 c -7.5,-0.1 -13.6,-6.2 -13.6,-13.7 z m 0,32.7 c 0,-7.5 6.1,-13.6 13.6,-13.6 h 26.1 c -2.5,2.5 -4.1,6 -4.1,9.9 v 7.5 c 0,3.8 1.6,7.3 4.1,9.9 h -26.1 c -7.5,-0.1 -13.6,-6.2 -13.6,-13.7 z m 0,32.7 c 0,-7.5 6.1,-13.6 13.6,-13.6 h 26.1 c -2.5,2.5 -4.1,6 -4.1,9.9 v 7.5 c 0,3.8 1.6,7.3 4.1,9.9 h -26.1 c -7.5,-0.1 -13.6,-6.2 -13.6,-13.7 z m 0,32.7 c 0,-7.5 6.1,-13.6 13.6,-13.6 h 26.1 c -2.5,2.5 -4.1,6 -4.1,9.9 v 7.5 c 0,3.8 1.6,7.3 4.1,9.9 h -26.1 c -7.5,-0.1 -13.6,-6.2 -13.6,-13.7 z m 0,32.6 c 0,-7.5 6.1,-13.6 13.6,-13.6 h 26.1 c -2.5,2.5 -4.1,6 -4.1,9.9 v 7.5 c 0,3.8 1.6,7.3 4.1,9.9 h -26.1 c -7.5,-0.1 -13.6,-6.2 -13.6,-13.7 z m 190.1,0 c 0,7.5 -6.1,13.6 -13.6,13.6 H 583 c 2.5,-2.5 4.1,-6 4.1,-9.9 v -7.5 c 0,-3.8 -1.6,-7.3 -4.1,-9.9 h 26.1 c 7.5,0.1 13.6,6.2 13.6,13.7 z m 0,-32.6 c 0,7.5 -6.1,13.6 -13.6,13.6 H 583 c 2.5,-2.5 4.1,-6 4.1,-9.9 v -7.5 c 0,-3.8 -1.6,-7.3 -4.1,-9.9 h 26.1 c 7.5,0 13.6,6.2 13.6,13.7 z m 0,-32.7 c 0,7.5 -6.1,13.6 -13.6,13.6 H 583 c 2.5,-2.5 4.1,-6 4.1,-9.9 v -7.5 c 0,-3.8 -1.6,-7.3 -4.1,-9.9 h 26.1 c 7.5,0.1 13.6,6.2 13.6,13.7 z m 0,-32.7 c 0,7.5 -6.1,13.6 -13.6,13.6 H 583 c 2.5,-2.5 4.1,-6 4.1,-9.9 v -7.5 c 0,-3.8 -1.6,-7.3 -4.1,-9.9 h 26.1 c 7.5,0.1 13.6,6.2 13.6,13.7 z m 0,-32.7 c 0,7.5 -6.1,13.6 -13.6,13.6 H 583 c 2.5,-2.5 4.1,-6 4.1,-9.9 v -7.5 c 0,-3.8 -1.6,-7.3 -4.1,-9.9 h 26.1 c 7.5,0.1 13.6,6.2 13.6,13.7 z m 0,-32.7 c 0,7.5 -6.1,13.6 -13.6,13.6 H 583 c 2.5,-2.5 4.1,-6 4.1,-9.9 V 611 c 0,-3.8 -1.6,-7.3 -4.1,-9.9 h 26.1 c 7.5,0.1 13.6,6.2 13.6,13.7 z m 0,-32.7 c 0,7.5 -6.1,13.6 -13.6,13.6 H 583 c 2.5,-2.5 4.1,-6 4.1,-9.9 v -7.5 c 0,-3.8 -1.6,-7.3 -4.1,-9.9 h 26.1 c 7.5,0.1 13.6,6.2 13.6,13.7 z m 15.1,-19 H 609.1 596 v -44.8 h 41.8 z"
   id="path98"
   inkscape:connector-curvature="0"
   style="fill:#262262" />
	<path
   d="m 994.6,574.3 c -3.1,-2.3 -6.7,-3 -10,-2 -3.7,1.2 -36.6,18.2 -60,30.4 4.9,-4.1 10.4,-8.7 15.8,-13.3 36.8,-31.6 36.3,-34.4 35.9,-36.7 -0.9,-4.7 -4.2,-9.9 -8.2,-12.5 -2.5,-1.6 -5.1,-2.2 -7.5,-1.6 -1.3,0.3 -3.9,0.9 -41.9,29.2 -4.7,3.5 -9.5,7.1 -13.8,10.4 9.4,-10.3 19.4,-21.1 23.1,-24.6 4.2,-3.9 9.8,-10.6 14,-16.8 7.6,-11.1 7.1,-14.9 5.8,-16.9 -3.1,-5 -14.7,-6.7 -17,-7 -0.8,-0.1 -1.7,0.2 -2.3,0.8 l -43.2,43.2 c -2.5,-2.2 -5.4,-4 -7.8,-4 -0.3,0 -0.6,0 -0.8,0.1 -3.2,0.6 -6.4,4.5 -13.4,13.4 -3,3.8 -6.4,8.1 -10,12.3 -3.9,4.4 -9.6,9.3 -15.7,14.3 -9.8,8.2 -20,16.8 -23.4,25 -4.6,11 -6.2,24.9 -6.6,29 l -90.9,79.6 c -0.6,0.5 -0.9,1.2 -0.9,2 0,0.8 0.3,1.5 0.8,2 l 66.1,66.1 c 0.5,0.5 1.2,0.8 1.9,0.8 0,0 0.1,0 0.1,0 0.8,0 1.5,-0.4 2,-0.9 l 80.6,-91.9 c 3,-0.3 11,-1.3 18.3,-5.1 6.4,-3.3 23.1,-17.2 26.5,-30.6 4.4,-1.3 17.5,-5.2 31,-9.8 34.1,-11.6 38,-16.2 39.2,-17.6 4.4,-5.2 5.6,-11.1 3.2,-15.6 -1.9,-3.7 -5.9,-5.7 -10.4,-5.4 -4.7,0.4 -22.2,5.4 -36.5,9.7 6.3,-3.9 13.6,-8.6 21,-13.3 40.2,-26 40.4,-29.3 40.5,-31.5 0,-4.5 -2,-8.6 -5.5,-11.2 z m -59.4,12.3 c -0.7,0.6 -1.3,1.1 -2,1.7 L 970,551 c 0.3,0.7 0.6,1.5 0.8,2.2 -0.9,1.6 -6.1,8.1 -35.6,33.4 z m 7.7,-64 c 0,0.9 -1,4.5 -6.3,12 -3.9,5.5 -8.9,11.5 -12.6,14.9 -3.2,3 -10.9,11.3 -18.9,19.9 l 34.8,-48.7 c 1.5,0.6 2.6,1.3 3,1.9 z m -78.6,81 c 10.7,12.6 39.2,47.4 42.5,57.6 0.5,1.4 0.5,2.9 0.3,4.5 -0.1,0.2 -0.1,0.4 -0.1,0.7 -0.1,0.8 -0.4,1.6 -0.6,2.4 -7.4,-20 -42.3,-59.6 -48.2,-66.2 L 886,568.1 c 0,0.4 0,0.7 -0.1,1 -1.4,4.2 -14,21.3 -21.6,31 -0.9,1.1 -0.9,2.5 0,3.5 z m -74.8,181.1 -60.5,-61.8 6.3,-5.5 60.6,60.1 z m -5.2,5.9 -61.9,-61.9 4.6,-4 60.7,62.1 z m 98.6,-96.1 c -7.9,4.1 -17.1,4.6 -17.2,4.6 -0.5,0 -1,0.2 -1.4,0.5 -12,-6.1 -16.7,-19.7 -16.8,-19.8 -0.2,-0.7 -1,-1.1 -1.7,-0.9 -0.7,0.2 -1.1,1 -0.9,1.7 0.2,0.6 5,14.3 17.4,21 l -64.6,73.6 -60.3,-59.8 73.2,-64.1 c 4,5.1 14.8,16.3 32.5,16.6 0,0 0,0 0,0 0.7,0 1.4,-0.6 1.4,-1.3 0,-0.8 -0.6,-1.4 -1.3,-1.4 -16.7,-0.2 -27.1,-11.4 -30.6,-15.9 0.1,-0.3 0.2,-0.6 0.2,-0.9 0,-0.2 1.3,-16.5 6.3,-28.4 2.9,-7 12.6,-15.1 21.9,-22.9 6.2,-5.2 12.1,-10.2 16.3,-14.9 3.8,-4.3 7.2,-8.6 10.2,-12.5 3.7,-4.7 8.4,-10.6 10.1,-11.4 1.1,0.1 4.4,2.3 6.6,5.5 0.3,0.4 0.5,0.8 0.8,1.2 l -29.6,36.8 c -0.4,0.5 -0.4,1.3 0,1.8 0.5,0.5 45.1,50.3 49.3,69 -5,9.2 -15.8,18.8 -21.8,21.9 z m 29.7,-31.6 c 0,-0.2 0,-0.3 0,-0.5 l 65.9,-25.1 c -0.1,0.1 -0.2,0.3 -0.4,0.4 -4.8,5.6 -41.2,17.9 -65.5,25.2 z m 62.9,-37.2 c 2.4,-0.2 4.2,0.7 5.1,2.4 0.6,1.2 0.8,3.1 0,5.4 L 912,659.7 c 0,0 0,-0.1 0,-0.1 -3.8,-12 -34.9,-49.3 -42.1,-57.8 4.8,-6.2 19.2,-25.2 21.1,-30.9 1,-2.9 0.2,-6.4 -2.1,-9.9 l 42.5,-42.5 c 2,0.3 4.1,0.8 6,1.4 l -47.8,67 c -4.5,5 -7.7,8.6 -8.1,9 -0.9,1.1 -0.9,2.6 0,3.7 1,1 2.5,1.2 3.7,0.3 27.2,-20.8 72,-54.3 76.7,-56 1.2,-0.3 2.4,0.3 3.2,0.9 1.3,0.8 2.6,2.2 3.6,3.7 l -57.6,58.4 c -5.9,4.9 -9.9,8.1 -10,8.2 -1.1,0.9 -1.3,2.5 -0.6,3.6 0.8,1.2 2.3,1.6 3.6,0.9 31,-16.2 78.4,-40.8 82.2,-42.1 1.5,-0.5 3.3,-0.1 5,1.1 0.7,0.5 1.3,1.2 1.8,1.9 l -64.1,49 c -3.8,2.4 -7.6,4.7 -11.4,7 -1.2,0.7 -1.6,2.2 -1.1,3.5 0.6,1.3 2,1.9 3.3,1.5 13.4,-4.3 49.5,-15.3 55.7,-15.8 z m -20,-13 38.8,-29.6 c 0.1,0.5 0.2,1 0.2,1.4 -2,3.4 -18.3,14.8 -39,28.2 z"
   id="path100"
   inkscape:connector-curvature="0"
   style="fill:#262262" />
	<g
   id="g110">
		<path
   d="m 1138.1,563 h -12.5 v -22.1 c 0,-1.5 -1.2,-2.7 -2.7,-2.7 h -69.2 c -1.5,0 -2.7,1.2 -2.7,2.7 v 251.3 c 0,1.5 1.2,2.7 2.7,2.7 h 84.4 c 1.5,0 2.7,-1.2 2.7,-2.7 V 565.7 c 0,-1.5 -1.2,-2.7 -2.7,-2.7 z m -37.4,226.4 -44.4,-29.2 v -13.9 l 65.5,43.2 h -21.1 z m -26.1,0 -18.2,-12 v -13.9 l 39.4,26 h -21.2 z m 13.9,-245.8 31.6,20.8 v 1.3 c 0,1.5 1.2,2.7 2.7,2.7 h 3.4 l 9.1,6 v 13.9 l -68,-44.8 h 21.2 z m -32.1,133.8 79,52 v 13.9 l -79,-52 z m 0,-3.3 v -13.9 l 79,52 v 13.9 z m 0,-17.2 V 643 l 79,52 v 13.9 z m 0,-17.2 v -13.9 l 79,52 v 13.9 z m 0,-17.3 v -13.9 l 79,52 v 13.9 z m 0,-17.2 v -13.9 l 79,52 v 13.9 z m 79,34.8 -79,-52 v -13.9 l 79,52 z m -79,54.6 79,52 v 13.9 l -79,-52 z m 79,-71.8 -79,-52 v -13.9 l 79,52 z m -79,89 79,52 v 13.9 l -79,-52 z m 79,-140.6 -4.1,-2.7 h 4.1 z m -15.3,-10.1 -26.6,-17.5 h 26.6 z m -57.7,-17.5 72.9,48.1 v 13.9 l -79,-52 v -10 z m -6,237.1 13.3,8.7 h -13.3 z m 70.5,8.7 -70.5,-46.4 v -14 l 79,52 v 8.3 h -8.5 z"
   id="path102"
   inkscape:connector-curvature="0"
   style="fill:#262262" />
		<path
   d="m 1322.3,538.1 h -69.2 c -1.5,0 -2.7,1.2 -2.7,2.7 V 563 h -12.5 c -1.5,0 -2.7,1.2 -2.7,2.7 v 226.4 c 0,1.5 1.2,2.7 2.7,2.7 h 84.4 c 1.5,0 2.7,-1.2 2.7,-2.7 V 540.9 c 0,-1.5 -1.2,-2.8 -2.7,-2.8 z m -42.2,251.3 39.4,-26 v 13.9 l -18.2,12 h -21.2 z m -26.1,0 65.5,-43.2 v 13.9 l -44.4,29.2 H 1254 Z m -0.9,-220.9 c 1.5,0 2.7,-1.2 2.7,-2.7 v -1.3 l 31.6,-20.8 h 21.2 l -68,44.8 v -13.9 l 9.1,-6 h 3.4 z m 66.4,122.8 -79,52 v -13.9 l 79,-52 z m 0,-17.2 -79,52 v -13.9 l 79,-52 z m 0,-17.2 -79,52 V 695 l 79,-52 z m 0,-17.2 -79,52 v -13.9 l 79,-52 z m 0,-17.3 -79,52 v -13.9 l 79,-52 z m 0,-17.2 -79,52 v -13.9 l 79,-52 z m 0,-17.2 -79,52 v -13.9 l 79,-52 z m -78.9,158.6 79,-52 v 13.9 l -79,52 z m 78.9,-175.8 -79,52 v -13.9 l 79,-52 z m -78.9,193 79,-52 v 13.9 l -79,52 z m 78.9,-210.2 -79,52 v -13.9 l 72.9,-48.1 h 6 v 10 z m -37.1,-10 -26.6,17.5 v -17.5 z m -37.7,24.9 -4.1,2.7 v -2.7 z m -4.1,212.6 79,-52 V 743 l -70.5,46.4 h -8.5 z m 65.7,8.3 13.3,-8.7 v 8.7 z"
   id="path104"
   inkscape:connector-curvature="0"
   style="fill:#262262" />
		<path
   d="m 1134,556.2 h 107.8 c 1.5,0 2.7,-1.2 2.7,-2.7 v -25.2 c 0,-1.5 -1.2,-2.7 -2.7,-2.7 h -12.6 v -10 c 0,-1.5 -1.2,-2.7 -2.7,-2.7 h -77.2 c -1.5,0 -2.7,1.2 -2.7,2.7 v 10 H 1134 c -1.5,0 -2.7,1.2 -2.7,2.7 v 25.2 c 0,1.5 1.2,2.7 2.7,2.7 z m 75.1,-37.9 v 7.2 h -42.3 v -7.2 z m 8.9,12.7 v 19.7 h -60.2 V 531 Z m 21.1,19.7 h -18.4 V 531 h 5.8 12.6 z m -15.3,-25.2 h -12 v -7.2 h 12 z m -71.7,-7.2 h 12 v 7.2 h -12 z m -15.3,12.7 h 12.6 5.8 v 19.7 h -18.4 z"
   id="path106"
   inkscape:connector-curvature="0"
   style="fill:#262262" />
		<path
   d="m 1189.7,657.9 c -15.5,1.5 -20.4,12.8 -36.3,12.8 -1.7,0 -3.5,-0.3 -5.5,-0.8 V 792 H 1228 V 667.4 c -27.4,-3.4 -22.8,-11 -38.3,-9.5 z"
   id="path108"
   inkscape:connector-curvature="0"
   style="fill:#262262" />
	</g>
</g>
</svg>