<?xml version="1.0" encoding="UTF-8" standalone="no"?>
<!-- Generator: Adobe Illustrator 18.0.0, SVG Export Plug-In . SVG Version: 6.00 Build 0)  -->

<svg
   xmlns:dc="http://purl.org/dc/elements/1.1/"
   xmlns:cc="http://creativecommons.org/ns#"
   xmlns:rdf="http://www.w3.org/1999/02/22-rdf-syntax-ns#"
   xmlns:svg="http://www.w3.org/2000/svg"
   xmlns="http://www.w3.org/2000/svg"
   xmlns:sodipodi="http://sodipodi.sourceforge.net/DTD/sodipodi-0.dtd"
   xmlns:inkscape="http://www.inkscape.org/namespaces/inkscape"
   version="1.1"
   id="Layer_1"
   x="0px"
   y="0px"
   viewBox="0 0 979.45984 284.61954"
   enable-background="new 0 0 1400 980"
   xml:space="preserve"
   sodipodi:docname="products.svg"
   width="979.45978"
   height="284.61954"
   inkscape:version="0.92.4 5da689c313, 2019-01-14"><metadata
   id="metadata119"><rdf:RDF><cc:Work
       rdf:about=""><dc:format>image/svg+xml</dc:format><dc:type
         rdf:resource="http://purl.org/dc/dcmitype/StillImage" /></cc:Work></rdf:RDF></metadata><defs
   id="defs117" /><sodipodi:namedview
   pagecolor="#ffffff"
   bordercolor="#666666"
   borderopacity="1"
   objecttolerance="10"
   gridtolerance="10"
   guidetolerance="10"
   inkscape:pageopacity="0"
   inkscape:pageshadow="2"
   inkscape:window-width="1680"
   inkscape:window-height="1022"
   id="namedview115"
   showgrid="false"
   inkscape:snap-page="true"
   inkscape:zoom="1.28"
   inkscape:cx="453.69513"
   inkscape:cy="157.66785"
   inkscape:window-x="0"
   inkscape:window-y="0"
   inkscape:window-maximized="1"
   inkscape:current-layer="g112" />
<g
   id="g112"
   transform="translate(-95.34025,-183.06172)">
	
	
	<g
   id="g82"
   transform="translate(-247.56147,6.9625)">
		<path
   d="m 750,369.5 c -0.2,-0.5 -0.8,-0.9 -1.3,-0.9 -0.6,0 -1.1,0.3 -1.3,0.9 l -17.6,40.4 c -2.8,6.4 -2.2,13.8 1.5,19.7 3.7,5.9 9.9,9.4 16.8,9.6 0.2,0 0.4,0 0.6,0 0.2,0 0.4,0 0.6,0 6.9,-0.2 13,-3.7 16.8,-9.6 3.8,-5.9 4.3,-13.3 1.5,-19.7 z m 13.6,58.5 c -3.2,5.1 -8.5,8.1 -14.4,8.2 -0.4,0 -0.8,0 -1.1,0 -5.9,-0.2 -11.2,-3.2 -14.4,-8.2 -3.2,-5.1 -3.7,-11.5 -1.3,-17 L 748.7,373.6 765,411 c 2.4,5.6 1.9,11.9 -1.4,17 z"
   id="path26"
   inkscape:connector-curvature="0"
   style="fill:#262262" />
		<path
   d="m 748.5,431.5 c -7.1,0 -12.9,-5.8 -12.9,-12.9 0,-0.4 -0.3,-0.7 -0.7,-0.7 -0.4,0 -0.7,0.3 -0.7,0.7 0,7.9 6.4,14.4 14.4,14.4 0.4,0 0.7,-0.3 0.7,-0.7 -0.1,-0.5 -0.4,-0.8 -0.8,-0.8 z"
   id="path28"
   inkscape:connector-curvature="0"
   style="fill:#262262" />
		<path
   d="m 804.6,369.5 c -0.2,-0.5 -0.8,-0.9 -1.3,-0.9 -0.6,0 -1.1,0.3 -1.3,0.9 l -17.6,40.4 c -2.8,6.4 -2.2,13.8 1.5,19.7 3.7,5.9 9.9,9.4 16.8,9.6 0.2,0 0.4,0 0.6,0 0.2,0 0.4,0 0.6,0 6.9,-0.2 13,-3.7 16.8,-9.6 3.8,-5.9 4.3,-13.3 1.5,-19.7 z m 13.6,58.5 c -3.2,5.1 -8.5,8.1 -14.4,8.2 -0.4,0 -0.8,0 -1.1,0 -5.9,-0.2 -11.2,-3.2 -14.4,-8.2 -3.2,-5.1 -3.7,-11.5 -1.3,-17 l 16.3,-37.4 16.3,37.4 c 2.3,5.6 1.8,11.9 -1.4,17 z"
   id="path30"
   inkscape:connector-curvature="0"
   style="fill:#262262" />
		<path
   d="m 803,431.5 c -7.1,0 -12.9,-5.8 -12.9,-12.9 0,-0.4 -0.3,-0.7 -0.7,-0.7 -0.4,0 -0.7,0.3 -0.7,0.7 0,7.9 6.4,14.4 14.4,14.4 0.4,0 0.7,-0.3 0.7,-0.7 -0.1,-0.5 -0.4,-0.8 -0.8,-0.8 z"
   id="path32"
   inkscape:connector-curvature="0"
   style="fill:#262262" />
		<path
   d="m 859.1,369.5 c -0.2,-0.5 -0.8,-0.9 -1.3,-0.9 -0.6,0 -1.1,0.3 -1.3,0.9 l -17.6,40.4 c -2.8,6.4 -2.2,13.8 1.5,19.7 3.7,5.9 9.9,9.4 16.8,9.6 0.2,0 0.4,0 0.6,0 0.2,0 0.4,0 0.6,0 6.9,-0.2 13,-3.7 16.8,-9.6 3.8,-5.9 4.3,-13.3 1.5,-19.7 z m 13.7,58.5 c -3.2,5.1 -8.5,8.1 -14.4,8.2 -0.4,0 -0.8,0 -1.1,0 -5.9,-0.2 -11.2,-3.2 -14.4,-8.2 -3.2,-5.1 -3.7,-11.5 -1.3,-17 l 16.3,-37.4 16.3,37.4 c 2.3,5.6 1.8,11.9 -1.4,17 z"
   id="path34"
   inkscape:connector-curvature="0"
   style="fill:#262262" />
		<path
   d="m 857.6,431.5 c -7.1,0 -12.9,-5.8 -12.9,-12.9 0,-0.4 -0.3,-0.7 -0.7,-0.7 -0.4,0 -0.7,0.3 -0.7,0.7 0,7.9 6.4,14.4 14.4,14.4 0.4,0 0.7,-0.3 0.7,-0.7 -0.1,-0.5 -0.4,-0.8 -0.8,-0.8 z"
   id="path36"
   inkscape:connector-curvature="0"
   style="fill:#262262" />
		<path
   d="m 913.7,369.5 c -0.2,-0.5 -0.8,-0.9 -1.3,-0.9 -0.6,0 -1.1,0.3 -1.3,0.9 l -17.6,40.4 c -2.8,6.4 -2.2,13.8 1.5,19.7 3.7,5.9 9.9,9.4 16.8,9.6 0.2,0 0.4,0 0.6,0 0.2,0 0.4,0 0.6,0 6.9,-0.2 13,-3.7 16.8,-9.6 3.8,-5.9 4.3,-13.3 1.5,-19.7 z m 13.6,58.5 c -3.2,5.1 -8.5,8.1 -14.4,8.2 -0.4,0 -0.8,0 -1.1,0 -5.9,-0.2 -11.2,-3.2 -14.4,-8.2 -3.2,-5.1 -3.7,-11.5 -1.3,-17 l 16.3,-37.4 16.3,37.4 c 2.4,5.6 1.9,11.9 -1.4,17 z"
   id="path38"
   inkscape:connector-curvature="0"
   style="fill:#262262" />
		<path
   d="m 912.1,431.5 c -7.1,0 -12.9,-5.8 -12.9,-12.9 0,-0.4 -0.3,-0.7 -0.7,-0.7 -0.4,0 -0.7,0.3 -0.7,0.7 0,7.9 6.4,14.4 14.4,14.4 0.4,0 0.7,-0.3 0.7,-0.7 0,-0.5 -0.4,-0.8 -0.8,-0.8 z"
   id="path40"
   inkscape:connector-curvature="0"
   style="fill:#262262" />
		<path
   d="m 968.3,369.5 c -0.2,-0.5 -0.8,-0.9 -1.3,-0.9 -0.6,0 -1.1,0.3 -1.3,0.9 L 948,409.9 c -2.8,6.4 -2.2,13.8 1.5,19.7 3.7,5.9 9.9,9.4 16.8,9.6 0.2,0 0.4,0 0.6,0 0.2,0 0.4,0 0.6,0 6.9,-0.2 13,-3.7 16.8,-9.6 3.8,-5.9 4.3,-13.3 1.5,-19.7 z m 13.6,58.5 c -3.2,5.1 -8.5,8.1 -14.4,8.2 -0.4,0 -0.8,0 -1.1,0 -5.9,-0.2 -11.2,-3.2 -14.4,-8.2 -3.2,-5.1 -3.7,-11.5 -1.3,-17 L 967,373.6 983.3,411 c 2.3,5.6 1.8,11.9 -1.4,17 z"
   id="path42"
   inkscape:connector-curvature="0"
   style="fill:#262262" />
		<path
   d="m 966.7,431.5 c -7.1,0 -12.9,-5.8 -12.9,-12.9 0,-0.4 -0.3,-0.7 -0.7,-0.7 -0.4,0 -0.7,0.3 -0.7,0.7 0,7.9 6.4,14.4 14.4,14.4 0.4,0 0.7,-0.3 0.7,-0.7 -0.1,-0.5 -0.4,-0.8 -0.8,-0.8 z"
   id="path44"
   inkscape:connector-curvature="0"
   style="fill:#262262" />
		<path
   d="m 997.3,196 h -279 c -1.5,0 -2.7,1.2 -2.7,2.7 v 252.4 c 0,1.5 1.2,2.7 2.7,2.7 h 279 c 1.5,0 2.7,-1.2 2.7,-2.7 V 198.7 c 0,-1.5 -1.2,-2.7 -2.7,-2.7 z m -258,5.5 -18.3,39.8 v -29.8 l 4.6,-10 z m 16.7,0 -30.9,67.3 H 721 v -20.9 l 21.3,-46.4 z m 16.6,0 -30.9,67.3 H 728 l 30.9,-67.3 z m 16.7,0 -30.9,67.3 h -13.7 l 30.9,-67.3 z m 16.7,0 -30.9,67.3 h -13.7 l 30.9,-67.3 z m 16.7,0 -30.9,67.3 H 778.1 L 809,201.5 Z m 16.7,0 -30.9,67.3 h -13.7 l 30.9,-67.3 z m 16.6,0 -30.9,67.3 h -13.7 l 30.9,-67.3 z m 16.7,0 -30.9,67.3 H 828.1 L 859,201.5 Z m 16.7,0 -30.9,67.3 h -13.7 l 30.9,-67.3 z m 16.7,0 -30.9,67.3 h -13.7 l 30.9,-67.3 z m 16.6,0 -30.9,67.3 H 878.1 L 909,201.5 Z m 16.7,0 -30.9,67.3 h -13.7 l 30.9,-67.3 z m 16.7,0 -30.9,67.3 h -13.7 l 30.9,-67.3 z m 16.7,0 -30.9,67.3 h -13.7 l 30.9,-67.3 z m 16.7,0 -30.9,67.3 h -13.7 l 30.9,-67.3 z M 721,274.3 h 273.5 v 81.5 H 721 Z m 257.3,-5.5 16.3,-35.5 v 35.5 z m 16.3,-42.1 -19.3,42.1 h -13.7 l 30.9,-67.3 h 2.1 z m -272,-25.2 -1.6,3.4 v -3.4 z M 721,448.4 v -87.2 h 273.5 v 87.2 z"
   id="path46"
   inkscape:connector-curvature="0"
   style="fill:#262262" />
		<path
   d="m 750.5,282.5 c -4.2,0 -7.7,3.4 -7.7,7.7 0,4.2 3.4,7.7 7.7,7.7 4.2,0 7.7,-3.4 7.7,-7.7 -0.1,-4.3 -3.5,-7.7 -7.7,-7.7 z m 0,12.5 c -2.7,0 -4.9,-2.2 -4.9,-4.9 0,-2.7 2.2,-4.9 4.9,-4.9 2.7,0 4.9,2.2 4.9,4.9 0,2.7 -2.2,4.9 -4.9,4.9 z"
   id="path48"
   inkscape:connector-curvature="0"
   style="fill:#262262" />
		<path
   d="m 750.5,333.4 c -4.2,0 -7.7,3.4 -7.7,7.7 0,4.3 3.4,7.7 7.7,7.7 4.2,0 7.7,-3.4 7.7,-7.7 0,-4.3 -3.5,-7.7 -7.7,-7.7 z m 0,12.6 c -2.7,0 -4.9,-2.2 -4.9,-4.9 0,-2.7 2.2,-4.9 4.9,-4.9 2.7,0 4.9,2.2 4.9,4.9 0,2.7 -2.2,4.9 -4.9,4.9 z"
   id="path50"
   inkscape:connector-curvature="0"
   style="fill:#262262" />
		<path
   d="m 793.4,282.5 c -4.2,0 -7.7,3.4 -7.7,7.7 0,4.2 3.4,7.7 7.7,7.7 4.2,0 7.7,-3.4 7.7,-7.7 0,-4.3 -3.5,-7.7 -7.7,-7.7 z m 0,12.5 c -2.7,0 -4.9,-2.2 -4.9,-4.9 0,-2.7 2.2,-4.9 4.9,-4.9 2.7,0 4.9,2.2 4.9,4.9 0,2.7 -2.2,4.9 -4.9,4.9 z"
   id="path52"
   inkscape:connector-curvature="0"
   style="fill:#262262" />
		<path
   d="m 793.4,333.4 c -4.2,0 -7.7,3.4 -7.7,7.7 0,4.3 3.4,7.7 7.7,7.7 4.2,0 7.7,-3.4 7.7,-7.7 0,-4.3 -3.5,-7.7 -7.7,-7.7 z m 0,12.6 c -2.7,0 -4.9,-2.2 -4.9,-4.9 0,-2.7 2.2,-4.9 4.9,-4.9 2.7,0 4.9,2.2 4.9,4.9 0,2.7 -2.2,4.9 -4.9,4.9 z"
   id="path54"
   inkscape:connector-curvature="0"
   style="fill:#262262" />
		<path
   d="m 836.3,282.5 c -4.2,0 -7.7,3.4 -7.7,7.7 0,4.2 3.4,7.7 7.7,7.7 4.2,0 7.7,-3.4 7.7,-7.7 0,-4.3 -3.4,-7.7 -7.7,-7.7 z m 0,12.5 c -2.7,0 -4.9,-2.2 -4.9,-4.9 0,-2.7 2.2,-4.9 4.9,-4.9 2.7,0 4.9,2.2 4.9,4.9 0.1,2.7 -2.1,4.9 -4.9,4.9 z"
   id="path56"
   inkscape:connector-curvature="0"
   style="fill:#262262" />
		<path
   d="m 836.3,333.4 c -4.2,0 -7.7,3.4 -7.7,7.7 0,4.3 3.4,7.7 7.7,7.7 4.2,0 7.7,-3.4 7.7,-7.7 0,-4.3 -3.4,-7.7 -7.7,-7.7 z m 0,12.6 c -2.7,0 -4.9,-2.2 -4.9,-4.9 0,-2.7 2.2,-4.9 4.9,-4.9 2.7,0 4.9,2.2 4.9,4.9 0.1,2.7 -2.1,4.9 -4.9,4.9 z"
   id="path58"
   inkscape:connector-curvature="0"
   style="fill:#262262" />
		<path
   d="m 879.3,282.5 c -4.2,0 -7.7,3.4 -7.7,7.7 0,4.2 3.4,7.7 7.7,7.7 4.3,0 7.7,-3.4 7.7,-7.7 -0.1,-4.3 -3.5,-7.7 -7.7,-7.7 z m 0,12.5 c -2.7,0 -4.9,-2.2 -4.9,-4.9 0,-2.7 2.2,-4.9 4.9,-4.9 2.7,0 4.9,2.2 4.9,4.9 0,2.7 -2.2,4.9 -4.9,4.9 z"
   id="path60"
   inkscape:connector-curvature="0"
   style="fill:#262262" />
		<path
   d="m 879.3,333.4 c -4.2,0 -7.7,3.4 -7.7,7.7 0,4.3 3.4,7.7 7.7,7.7 4.3,0 7.7,-3.4 7.7,-7.7 0,-4.3 -3.5,-7.7 -7.7,-7.7 z m 0,12.6 c -2.7,0 -4.9,-2.2 -4.9,-4.9 0,-2.7 2.2,-4.9 4.9,-4.9 2.7,0 4.9,2.2 4.9,4.9 0,2.7 -2.2,4.9 -4.9,4.9 z"
   id="path62"
   inkscape:connector-curvature="0"
   style="fill:#262262" />
		<path
   d="m 922.2,282.5 c -4.2,0 -7.7,3.4 -7.7,7.7 0,4.2 3.4,7.7 7.7,7.7 4.3,0 7.7,-3.4 7.7,-7.7 -0.1,-4.3 -3.5,-7.7 -7.7,-7.7 z m 0,12.5 c -2.7,0 -4.9,-2.2 -4.9,-4.9 0,-2.7 2.2,-4.9 4.9,-4.9 2.7,0 4.9,2.2 4.9,4.9 0,2.7 -2.2,4.9 -4.9,4.9 z"
   id="path64"
   inkscape:connector-curvature="0"
   style="fill:#262262" />
		<path
   d="m 922.2,333.4 c -4.2,0 -7.7,3.4 -7.7,7.7 0,4.3 3.4,7.7 7.7,7.7 4.3,0 7.7,-3.4 7.7,-7.7 0,-4.3 -3.5,-7.7 -7.7,-7.7 z m 0,12.6 c -2.7,0 -4.9,-2.2 -4.9,-4.9 0,-2.7 2.2,-4.9 4.9,-4.9 2.7,0 4.9,2.2 4.9,4.9 0,2.7 -2.2,4.9 -4.9,4.9 z"
   id="path66"
   inkscape:connector-curvature="0"
   style="fill:#262262" />
		<path
   d="m 965.1,297.8 c 4.2,0 7.7,-3.4 7.7,-7.7 0,-4.2 -3.4,-7.7 -7.7,-7.7 -4.2,0 -7.7,3.4 -7.7,7.7 0.1,4.2 3.5,7.7 7.7,7.7 z m 0,-12.6 c 2.7,0 4.9,2.2 4.9,4.9 0,2.7 -2.2,4.9 -4.9,4.9 -2.7,0 -4.9,-2.2 -4.9,-4.9 0,-2.7 2.2,-4.9 4.9,-4.9 z"
   id="path68"
   inkscape:connector-curvature="0"
   style="fill:#262262" />
		<path
   d="m 965.1,333.4 c -4.2,0 -7.7,3.4 -7.7,7.7 0,4.3 3.4,7.7 7.7,7.7 4.2,0 7.7,-3.4 7.7,-7.7 0,-4.3 -3.5,-7.7 -7.7,-7.7 z m 0,12.6 c -2.7,0 -4.9,-2.2 -4.9,-4.9 0,-2.7 2.2,-4.9 4.9,-4.9 2.7,0 4.9,2.2 4.9,4.9 0,2.7 -2.2,4.9 -4.9,4.9 z"
   id="path70"
   inkscape:connector-curvature="0"
   style="fill:#262262" />
		<path
   d="m 771.4,306 c -4.2,0 -7.7,3.4 -7.7,7.7 0,4.2 3.4,7.7 7.7,7.7 4.2,0 7.7,-3.4 7.7,-7.7 -0.1,-4.3 -3.5,-7.7 -7.7,-7.7 z m 0,12.6 c -2.7,0 -4.9,-2.2 -4.9,-4.9 0,-2.7 2.2,-4.9 4.9,-4.9 2.7,0 4.9,2.2 4.9,4.9 0,2.7 -2.2,4.9 -4.9,4.9 z"
   id="path72"
   inkscape:connector-curvature="0"
   style="fill:#262262" />
		<path
   d="m 815,306 c -4.2,0 -7.7,3.4 -7.7,7.7 0,4.2 3.4,7.7 7.7,7.7 4.2,0 7.7,-3.4 7.7,-7.7 0,-4.3 -3.4,-7.7 -7.7,-7.7 z m 0,12.6 c -2.7,0 -4.9,-2.2 -4.9,-4.9 0,-2.7 2.2,-4.9 4.9,-4.9 2.7,0 4.9,2.2 4.9,4.9 0.1,2.7 -2.1,4.9 -4.9,4.9 z"
   id="path74"
   inkscape:connector-curvature="0"
   style="fill:#262262" />
		<path
   d="m 858.7,306 c -4.2,0 -7.7,3.4 -7.7,7.7 0,4.2 3.4,7.7 7.7,7.7 4.2,0 7.7,-3.4 7.7,-7.7 -0.1,-4.3 -3.5,-7.7 -7.7,-7.7 z m 0,12.6 c -2.7,0 -4.9,-2.2 -4.9,-4.9 0,-2.7 2.2,-4.9 4.9,-4.9 2.7,0 4.9,2.2 4.9,4.9 0,2.7 -2.2,4.9 -4.9,4.9 z"
   id="path76"
   inkscape:connector-curvature="0"
   style="fill:#262262" />
		<path
   d="m 902.3,306 c -4.2,0 -7.7,3.4 -7.7,7.7 0,4.2 3.4,7.7 7.7,7.7 4.2,0 7.7,-3.4 7.7,-7.7 0,-4.3 -3.4,-7.7 -7.7,-7.7 z m 0,12.6 c -2.7,0 -4.9,-2.2 -4.9,-4.9 0,-2.7 2.2,-4.9 4.9,-4.9 2.7,0 4.9,2.2 4.9,4.9 0.1,2.7 -2.1,4.9 -4.9,4.9 z"
   id="path78"
   inkscape:connector-curvature="0"
   style="fill:#262262" />
		<path
   d="m 946,306 c -4.2,0 -7.7,3.4 -7.7,7.7 0,4.2 3.4,7.7 7.7,7.7 4.2,0 7.7,-3.4 7.7,-7.7 -0.1,-4.3 -3.5,-7.7 -7.7,-7.7 z m 0,12.6 c -2.7,0 -4.9,-2.2 -4.9,-4.9 0,-2.7 2.2,-4.9 4.9,-4.9 2.7,0 4.9,2.2 4.9,4.9 0,2.7 -2.2,4.9 -4.9,4.9 z"
   id="path80"
   inkscape:connector-curvature="0"
   style="fill:#262262" />
	</g>
	<g
   id="g90"
   transform="translate(-237.5,0.78125)">
		<path
   d="M 1309.3,331 H 1247 v -88.5 h 27.5 c 1.2,0 2.3,-0.8 2.6,-2 0.3,-1.2 -0.1,-2.4 -1.2,-3.1 l -86.6,-54.3 c -0.9,-0.6 -2,-0.6 -2.9,0 l -86.6,54.3 c -1,0.6 -1.5,1.9 -1.2,3.1 0.3,1.2 1.4,2 2.6,2 h 27.5 V 331 h -62.3 c -1.5,0 -2.7,1.2 -2.7,2.7 0,1.5 1.2,2.7 2.7,2.7 h 12.7 l -11.4,16.7 c -0.4,0.6 -0.3,1.5 0.4,1.9 0.2,0.2 0.5,0.2 0.8,0.2 0.4,0 0.9,-0.2 1.1,-0.6 l 12.5,-18.2 h 9.1 l -11.4,16.7 c -0.4,0.6 -0.3,1.5 0.4,1.9 0.2,0.2 0.5,0.2 0.8,0.2 0.4,0 0.9,-0.2 1.1,-0.6 l 12.5,-18.2 h 9.1 l -11.4,16.7 c -0.4,0.6 -0.3,1.5 0.4,1.9 0.2,0.2 0.5,0.2 0.8,0.2 0.4,0 0.9,-0.2 1.1,-0.6 l 12.5,-18.2 h 9.1 l -11.4,16.7 c -0.4,0.6 -0.3,1.5 0.4,1.9 0.2,0.2 0.5,0.2 0.8,0.2 0.4,0 0.9,-0.2 1.1,-0.6 l 12.5,-18.2 h 9.1 l -11.4,16.7 c -0.4,0.6 -0.3,1.5 0.4,1.9 0.2,0.2 0.5,0.2 0.8,0.2 0.4,0 0.9,-0.2 1.1,-0.6 l 12.5,-18.2 h 4 v 29.8 h -32.6 c -1.5,0 -2.7,1.2 -2.7,2.7 v 69.7 c 0,1.5 1.2,2.7 2.7,2.7 h 13.4 c 2,6.9 6.1,13.1 11.7,17.7 6.3,5.1 14.2,7.9 22.4,7.9 h 73.3 c 8.1,0 16.1,-2.8 22.4,-7.9 5.6,-4.6 9.7,-10.8 11.7,-17.7 h 13.4 c 1.5,0 2.7,-1.2 2.7,-2.7 V 369 c 0,-1.5 -1.2,-2.7 -2.7,-2.7 h -32.6 v -29.8 h 4.7 9.3 l -11.4,16.7 c -0.4,0.6 -0.3,1.5 0.4,1.9 0.2,0.2 0.5,0.2 0.8,0.2 0.4,0 0.9,-0.2 1.1,-0.6 l 12.5,-18.2 h 9.1 l -11.4,16.7 c -0.4,0.6 -0.3,1.5 0.4,1.9 0.2,0.2 0.5,0.2 0.8,0.2 0.4,0 0.9,-0.2 1.1,-0.6 l 12.5,-18.2 h 9.1 l -11.4,16.7 c -0.4,0.6 -0.3,1.5 0.4,1.9 0.2,0.2 0.5,0.2 0.8,0.2 0.4,0 0.9,-0.2 1.1,-0.6 l 12.5,-18.2 h 9.1 l -11.4,16.7 c -0.4,0.6 -0.3,1.5 0.4,1.9 0.2,0.2 0.5,0.2 0.8,0.2 0.4,0 0.9,-0.2 1.1,-0.6 l 12.5,-18.2 h 9.1 l -11.4,16.7 c -0.4,0.6 -0.3,1.5 0.4,1.9 0.2,0.2 0.5,0.2 0.8,0.2 0.4,0 0.9,-0.2 1.1,-0.6 l 12.5,-18.2 h 2.6 c 1.5,0 2.7,-1.2 2.7,-2.7 0,-1.5 -1.5,-2.8 -3,-2.8 z m -65,-94 h -9.2 l -36.8,-41.9 66.7,41.9 z m -56.3,-48.3 2.3,1.4 41.2,47 h -87 l 41.2,-47 z m -10.4,6.5 -36.8,41.9 h -9.2 -20.7 z m 59.2,176.6 h 32.6 V 436 h -12.8 c -1.3,0 -2.4,0.9 -2.7,2.1 -3,13.6 -15.3,23.5 -29.3,23.5 h -73.3 c -14,0 -26.3,-9.9 -29.3,-23.5 -0.3,-1.3 -1.4,-2.1 -2.7,-2.1 h -12.8 v -64.2 h 32.6 c 1.5,0 2.7,-1.2 2.7,-2.7 v -32.6 h 4.5 v 39.8 h -32.6 c -1.5,0 -2.7,1.2 -2.7,2.7 v 51.3 c 0,1.5 1.2,2.7 2.7,2.7 h 4.9 c 1.5,0 2.7,-1.2 2.7,-2.6 0.7,-16.1 13.8,-28.8 30,-28.8 h 73.3 c 16.2,0 29.3,12.6 30,28.8 0.1,1.5 1.3,2.6 2.7,2.6 h 4.9 c 1.5,0 2.7,-1.2 2.7,-2.7 V 379 c 0,-1.5 -1.2,-2.7 -2.7,-2.7 h -32.6 v -39.8 h 4.5 V 369 c 0,1.6 1.2,2.8 2.7,2.8 z m -70.4,-35.3 -11.4,16.7 c -0.4,0.6 -0.3,1.5 0.4,1.9 0.2,0.2 0.5,0.2 0.8,0.2 0.4,0 0.9,-0.2 1.1,-0.6 l 12.5,-18.2 h 9.1 l -11.4,16.7 c -0.4,0.6 -0.3,1.5 0.4,1.9 0.2,0.2 0.5,0.2 0.8,0.2 0.4,0 0.9,-0.2 1.1,-0.6 l 12.5,-18.2 h 9.1 l -11.4,16.7 c -0.4,0.6 -0.3,1.5 0.4,1.9 0.2,0.2 0.5,0.2 0.8,0.2 0.4,0 0.9,-0.2 1.1,-0.6 l 12.5,-18.2 h 9.1 l -11.4,16.7 c -0.4,0.6 -0.3,1.5 0.4,1.9 0.2,0.2 0.5,0.2 0.8,0.2 0.4,0 0.9,-0.2 1.1,-0.6 l 12.5,-18.2 h 9.1 l -11.4,16.7 c -0.4,0.6 -0.3,1.5 0.4,1.9 0.2,0.2 0.5,0.2 0.8,0.2 0.4,0 0.9,-0.2 1.1,-0.6 l 12.5,-18.2 h 4.6 V 379 c 0,1.5 1.2,2.7 2.7,2.7 h 32.6 V 425 c -3.1,-16.5 -17.5,-28.8 -34.9,-28.8 h -73.3 c -17.3,0 -31.8,12.3 -34.9,28.8 v -43.3 h 32.6 c 1.5,0 2.7,-1.2 2.7,-2.7 v -42.5 z m 15.8,-5.5 h -26.5 v -57.3 h 26.5 z m 54.6,0 h -9.9 -42 v -58.7 c 0,-0.8 -0.6,-1.4 -1.4,-1.4 h -29.2 c -0.8,0 -1.4,0.6 -1.4,1.4 V 331 h -4 -9.9 -4.7 v -88.5 h 107.2 V 331 Z"
   id="path84"
   inkscape:connector-curvature="0"
   style="fill:#262262" />
		<path
   d="m 1228,260.5 h -27.8 c -0.8,0 -1.4,0.6 -1.4,1.4 v 27.8 c 0,0.8 0.6,1.4 1.4,1.4 h 27.8 c 0.8,0 1.4,-0.6 1.4,-1.4 v -27.8 c 0,-0.8 -0.6,-1.4 -1.4,-1.4 z m -1.4,27.9 h -25.1 v -25.1 h 25.1 z"
   id="path86"
   inkscape:connector-curvature="0"
   style="fill:#262262" />
		<path
   d="m 1230.6,428.4 c -11.2,1.9 -9.8,4.8 -24.9,3.2 -15.1,-1.5 -13.6,-3.7 -27.7,-4.3 -14.1,-0.6 -15.4,3.8 -32.8,5.8 -5.6,0.7 -11.1,-0.4 -16.1,-2 0,0.2 0,0.3 0,0.5 v 0 c 0,13.3 10.7,24 24,24 h 69.7 c 13.3,0 24,-10.7 24,-24 v 0 c 0,-0.7 0,-1.3 -0.1,-2 -5.4,-1.1 -11.4,-1.9 -16.1,-1.2 z"
   id="path88"
   inkscape:connector-curvature="0"
   style="fill:#262262" />
	</g>
	
	
	
	<g
   id="g110"
   transform="translate(-955.65975,-329.83828)">
		<path
   d="m 1138.1,563 h -12.5 v -22.1 c 0,-1.5 -1.2,-2.7 -2.7,-2.7 h -69.2 c -1.5,0 -2.7,1.2 -2.7,2.7 v 251.3 c 0,1.5 1.2,2.7 2.7,2.7 h 84.4 c 1.5,0 2.7,-1.2 2.7,-2.7 V 565.7 c 0,-1.5 -1.2,-2.7 -2.7,-2.7 z m -37.4,226.4 -44.4,-29.2 v -13.9 l 65.5,43.2 h -21.1 z m -26.1,0 -18.2,-12 v -13.9 l 39.4,26 h -21.2 z m 13.9,-245.8 31.6,20.8 v 1.3 c 0,1.5 1.2,2.7 2.7,2.7 h 3.4 l 9.1,6 v 13.9 l -68,-44.8 h 21.2 z m -32.1,133.8 79,52 v 13.9 l -79,-52 z m 0,-3.3 v -13.9 l 79,52 v 13.9 z m 0,-17.2 V 643 l 79,52 v 13.9 z m 0,-17.2 v -13.9 l 79,52 v 13.9 z m 0,-17.3 v -13.9 l 79,52 v 13.9 z m 0,-17.2 v -13.9 l 79,52 v 13.9 z m 79,34.8 -79,-52 v -13.9 l 79,52 z m -79,54.6 79,52 v 13.9 l -79,-52 z m 79,-71.8 -79,-52 v -13.9 l 79,52 z m -79,89 79,52 v 13.9 l -79,-52 z m 79,-140.6 -4.1,-2.7 h 4.1 z m -15.3,-10.1 -26.6,-17.5 h 26.6 z m -57.7,-17.5 72.9,48.1 v 13.9 l -79,-52 v -10 z m -6,237.1 13.3,8.7 h -13.3 z m 70.5,8.7 -70.5,-46.4 v -14 l 79,52 v 8.3 h -8.5 z"
   id="path102"
   inkscape:connector-curvature="0"
   style="fill:#262262" />
		<path
   d="m 1322.3,538.1 h -69.2 c -1.5,0 -2.7,1.2 -2.7,2.7 V 563 h -12.5 c -1.5,0 -2.7,1.2 -2.7,2.7 v 226.4 c 0,1.5 1.2,2.7 2.7,2.7 h 84.4 c 1.5,0 2.7,-1.2 2.7,-2.7 V 540.9 c 0,-1.5 -1.2,-2.8 -2.7,-2.8 z m -42.2,251.3 39.4,-26 v 13.9 l -18.2,12 h -21.2 z m -26.1,0 65.5,-43.2 v 13.9 l -44.4,29.2 H 1254 Z m -0.9,-220.9 c 1.5,0 2.7,-1.2 2.7,-2.7 v -1.3 l 31.6,-20.8 h 21.2 l -68,44.8 v -13.9 l 9.1,-6 h 3.4 z m 66.4,122.8 -79,52 v -13.9 l 79,-52 z m 0,-17.2 -79,52 v -13.9 l 79,-52 z m 0,-17.2 -79,52 V 695 l 79,-52 z m 0,-17.2 -79,52 v -13.9 l 79,-52 z m 0,-17.3 -79,52 v -13.9 l 79,-52 z m 0,-17.2 -79,52 v -13.9 l 79,-52 z m 0,-17.2 -79,52 v -13.9 l 79,-52 z m -78.9,158.6 79,-52 v 13.9 l -79,52 z m 78.9,-175.8 -79,52 v -13.9 l 79,-52 z m -78.9,193 79,-52 v 13.9 l -79,52 z m 78.9,-210.2 -79,52 v -13.9 l 72.9,-48.1 h 6 v 10 z m -37.1,-10 -26.6,17.5 v -17.5 z m -37.7,24.9 -4.1,2.7 v -2.7 z m -4.1,212.6 79,-52 V 743 l -70.5,46.4 h -8.5 z m 65.7,8.3 13.3,-8.7 v 8.7 z"
   id="path104"
   inkscape:connector-curvature="0"
   style="fill:#262262" />
		<path
   d="m 1134,556.2 h 107.8 c 1.5,0 2.7,-1.2 2.7,-2.7 v -25.2 c 0,-1.5 -1.2,-2.7 -2.7,-2.7 h -12.6 v -10 c 0,-1.5 -1.2,-2.7 -2.7,-2.7 h -77.2 c -1.5,0 -2.7,1.2 -2.7,2.7 v 10 H 1134 c -1.5,0 -2.7,1.2 -2.7,2.7 v 25.2 c 0,1.5 1.2,2.7 2.7,2.7 z m 75.1,-37.9 v 7.2 h -42.3 v -7.2 z m 8.9,12.7 v 19.7 h -60.2 V 531 Z m 21.1,19.7 h -18.4 V 531 h 5.8 12.6 z m -15.3,-25.2 h -12 v -7.2 h 12 z m -71.7,-7.2 h 12 v 7.2 h -12 z m -15.3,12.7 h 12.6 5.8 v 19.7 h -18.4 z"
   id="path106"
   inkscape:connector-curvature="0"
   style="fill:#262262" />
		<path
   d="m 1189.7,657.9 c -15.5,1.5 -20.4,12.8 -36.3,12.8 -1.7,0 -3.5,-0.3 -5.5,-0.8 V 792 H 1228 V 667.4 c -27.4,-3.4 -22.8,-11 -38.3,-9.5 z"
   id="path108"
   inkscape:connector-curvature="0"
   style="fill:#262262" />
	</g>
</g>
</svg>